M48
; DRILL file {KiCad (5.1.4)-1} date 25.04.2021 17:32:40
; FORMAT={2:4/ absolute / inch / suppress trailing zeros}
; #@! TF.CreationDate,2021-04-25T17:32:40+02:00
; #@! TF.GenerationSoftware,Kicad,Pcbnew,(5.1.4)-1
; #@! TF.FileFunction,Plated,1,8,PTH
FMAT,2
INCH,LZ
T1C0.0079
T2C0.0118
T3C0.0197
T4C0.0236
T5C0.0630
T6C0.1181
%
G90
G05
T1
X066142Y-028986
X066142Y-029203
X066142Y-029419
X066168Y-029994
X06628Y-027106
X06628Y-02753
X066297Y-026399
X066367Y-030042
X066398Y-031075
X066398Y-031843
X066409Y-030843
X066417Y-024902
X066417Y-031331
X066417Y-031539
X066427Y-028612
X066447Y-029803
X066467Y-03061
X066476Y-025531
X066555Y-027421
X066594Y-026988
X066599Y-025866
X066634Y-025079
X066673Y-030295
X066673Y-030492
X066673Y-030965
X066673Y-031161
X066696Y-031515
X066742Y-028602
X066752Y-029803
X066791Y-027776
X06687Y-030295
X06687Y-030492
X06687Y-030965
X06687Y-031161
X06688Y-031969
X06689Y-025945
X066904Y-025544
X067Y-026389
X067003Y-028047
X067018Y-028612
X067047Y-029823
X067047Y-024621
X067067Y-030295
X067067Y-030492
X067067Y-030965
X067067Y-031161
X0672Y-028091
X067205Y-026024
X067205Y-028543
X067215Y-028868
X067264Y-030295
X067264Y-030492
X067264Y-030965
X067264Y-031161
X067295Y-02728
X067327Y-028705
X067366Y-027543
X067398Y-029984
X067402Y-025945
X067402Y-02622
X067428Y-025735
X06752Y-027224
X067539Y-030295
X067539Y-030492
X067539Y-030965
X067539Y-031161
X067579Y-026555
X067665Y-029961
X067736Y-030295
X067736Y-030492
X067736Y-030965
X067736Y-031161
X067783Y-028626
X067799Y-028165
X067808Y-028379
X067815Y-025256
X067882Y-02765
X067933Y-030295
X067933Y-030492
X067933Y-030965
X067933Y-031161
X067953Y-029055
X067953Y-029449
X06813Y-030295
X06813Y-030492
X06813Y-030965
X06813Y-031161
X068173Y-025394
X068189Y-025906
X068217Y-029685
X068248Y-026339
X068268Y-029488
X068305Y-029294
X068343Y-028547
X068406Y-025256
X068406Y-031437
X068445Y-03002
X068465Y-027795
X068524Y-025079
X068524Y-031614
X068551Y-025541
X068551Y-031152
X068602Y-030023
X068622Y-026693
X068642Y-027746
X068661Y-02874
X068677Y-025357
X068677Y-031336
X068858Y-024311
X068858Y-024567
X068858Y-032126
X068858Y-032382
X068878Y-030029
X068984Y-025709
X068984Y-030984
X068996Y-026555
X069024Y-025197
X069024Y-031496
X069058Y-028737
X069124Y-03002
X069146Y-025701
X069146Y-030992
X069171Y-024504
X069171Y-032189
X069181Y-024685
X069181Y-032008
X069301Y-030246
X069362Y-028744
X0694Y-027972
X0695Y-026122
X0695Y-030571
X069509Y-026555
X069528Y-028268
X069543Y-030246
X069551Y-025728
X069551Y-030965
X069617Y-028119
X06964Y-029724
X069694Y-029535
X069705Y-028894
X069719Y-026339
X06974Y-025638
X06974Y-031055
X069752Y-030323
X069764Y-029347
X069795Y-026008
X069795Y-030685
X069889Y-031476
X06989Y-02522
X069902Y-026555
X069961Y-028748
X070039Y-027917
X070059Y-026555
X070081Y-03152
X070083Y-024429
X070083Y-024587
X070083Y-032106
X070083Y-032264
X070087Y-024266
X070087Y-032427
X070088Y-025165
X070089Y-030079
X070099Y-029516
X070118Y-027736
X070153Y-02628
X070154Y-030386
X070217Y-026555
X070236Y-026915
X070266Y-031588
X070276Y-025099
X070283Y-024035
X070283Y-032657
X070354Y-028512
X070354Y-028799
X070354Y-029961
X070354Y-027709
X070394Y-024831
X070394Y-031862
X070429Y-026961
X070462Y-031572
X070465Y-030413
X070468Y-02628
X070471Y-025121
X0706Y-030016
X070626Y-026996
X070638Y-025713
X070638Y-025913
X070638Y-03078
X070638Y-03098
X070646Y-028543
X070718Y-027853
X070807Y-029823
X070819Y-029028
X070854Y-025118
X070854Y-031575
X071006Y-027717
X071043Y-028031
X071043Y-029909
X071051Y-025118
X071051Y-031575
X071057Y-028808
X071063Y-02937
X071075Y-029004
X071161Y-026909
X071169Y-030866
X071181Y-025839
X071232Y-028583
X071243Y-02929
X071248Y-031329
X07125Y-027087
X071271Y-024433
X071271Y-03226
X071271Y-024592
X071271Y-032101
X071289Y-027372
X071323Y-028185
X071334Y-027988
X071425Y-030374
X071437Y-025709
X07148Y-030783
X071539Y-02813
X07154Y-028858
X071563Y-030276
X071571Y-023852
X071571Y-032841
X071646Y-030602
X071654Y-025512
X071654Y-025898
X071669Y-028705
X071673Y-027117
X071673Y-028425
X071701Y-025098
X071701Y-031594
X071744Y-026157
X071752Y-023941
X071752Y-032752
X071764Y-026669
X071818Y-031808
X071831Y-027323
X071831Y-029173
X071846Y-030598
X07185Y-024114
X07185Y-024272
X07185Y-024685
X07185Y-032008
X07185Y-032421
X07185Y-032579
X071949Y-023941
X071949Y-032752
X071953Y-028693
X071988Y-027795
X071988Y-029016
X072Y-025041
X072Y-031594
X072008Y-028403
X072079Y-026122
X072102Y-0265
X07211Y-030795
X07213Y-023852
X07213Y-026988
X07213Y-032841
X072138Y-031181
X072147Y-025915
X072158Y-027566
X072165Y-027285
X072258Y-030013
X072319Y-027439
X072319Y-02872
X072325Y-030198
X072378Y-026602
X07243Y-024592
X07243Y-032101
X07243Y-024433
X07243Y-03226
X072441Y-027618
X072457Y-025344
X072461Y-027283
X072461Y-027913
X07249Y-02563
X072512Y-030886
X072618Y-029055
X07265Y-031575
X07266Y-025103
X072689Y-026764
X072694Y-026961
X072717Y-027717
X072717Y-02878
X072717Y-028346
X072776Y-027913
X072846Y-031575
X072856Y-025119
X072928Y-028685
X073063Y-025713
X073063Y-025913
X073063Y-030803
X073063Y-03098
X073091Y-028228
X073091Y-028927
X073226Y-027766
X073236Y-02628
X073236Y-030413
X073239Y-025121
X073239Y-031572
X073307Y-024831
X073307Y-031862
X073386Y-027173
X073387Y-029829
X073406Y-026969
X073417Y-024035
X073417Y-032657
X073437Y-025105
X073437Y-031588
X073524Y-027756
X073531Y-030114
X073546Y-026282
X073547Y-03039
X073563Y-029606
X073581Y-028701
X073583Y-029331
X073614Y-024266
X073614Y-032427
X073618Y-024429
X073618Y-024587
X073618Y-032106
X073618Y-032264
X073625Y-031521
X073627Y-025174
X073669Y-026634
X07371Y-027256
X07372Y-026969
X073728Y-030122
X073756Y-029682
X073819Y-031457
X073819Y-025244
X073869Y-028124
X073882Y-026634
X073906Y-026008
X073906Y-030685
X073929Y-03035
X073949Y-026358
X073961Y-025638
X073961Y-031055
X074016Y-029909
X074031Y-027886
X074035Y-029488
X074035Y-026969
X074035Y-028878
X074035Y-029173
X074131Y-030264
X074145Y-026437
X07415Y-025728
X074173Y-029646
X074181Y-028374
X074181Y-030988
X074193Y-028032
X074201Y-026122
X074201Y-030571
X074201Y-030732
X074205Y-028758
X074336Y-026973
X074348Y-029168
X074378Y-029898
X074378Y-030264
X074429Y-026437
X074445Y-028236
X074473Y-029
X0745Y-02952
X074508Y-028423
X07452Y-024685
X07452Y-032008
X07453Y-024504
X07453Y-032189
X074551Y-027661
X074555Y-025701
X074555Y-030992
X074577Y-027977
X074677Y-025197
X074677Y-031496
X074716Y-029698
X074717Y-025709
X074717Y-030984
X074764Y-027461
X074783Y-026484
X074783Y-026815
X074787Y-028748
X074828Y-02981
X074843Y-024311
X074843Y-024567
X074843Y-029059
X074843Y-032126
X074843Y-032382
X074937Y-02672
X074941Y-026882
X074961Y-027396
X074976Y-026444
X075024Y-025357
X075024Y-031336
X075079Y-027972
X075079Y-028736
X075122Y-029478
X075128Y-02503
X075129Y-025553
X07515Y-029236
X07515Y-031152
X075177Y-031614
X075295Y-031437
X075394Y-025433
X075705Y-029996
X075776Y-030543
X075811Y-027039
X075814Y-02595
X075846Y-025236
X075945Y-030644
X075972Y-029571
X076002Y-02672
X076004Y-030961
X076004Y-02997
X076015Y-025374
X076024Y-026492
X076031Y-030246
X076152Y-028474
X076152Y-02876
X076152Y-029055
X076152Y-029213
X076152Y-02937
X076173Y-030815
X076197Y-026353
X07624Y-030276
X076309Y-028288
X076309Y-028494
X076309Y-02876
X076309Y-029055
X076309Y-029213
X076309Y-02937
X076333Y-026211
X076358Y-027858
X076427Y-027362
X076448Y-030738
X076511Y-026431
X076516Y-030275
X076609Y-026254
X076645Y-030424
X076693Y-027598
X076732Y-027874
X076795Y-030551
X076797Y-025891
X076811Y-02622
X076811Y-031821
X076821Y-02438
X076821Y-024862
X076821Y-032283
X07685Y-027362
X077008Y-027638
X077008Y-027815
X077008Y-028878
X077008Y-029055
X077047Y-027461
X077047Y-029232
X077067Y-027972
X077067Y-02872
X077067Y-031673
X077069Y-030273
X077087Y-024734
X077087Y-024252
X077087Y-024537
X077087Y-02502
X077087Y-031959
X077087Y-032156
X077087Y-032441
X077126Y-026216
X077146Y-027303
X077146Y-02939
X077153Y-029917
X077154Y-031299
X077156Y-025817
X077165Y-026811
X077165Y-031496
X077166Y-026416
X077169Y-026613
X077179Y-030913
X077182Y-025378
X077185Y-028091
X077185Y-028602
X077199Y-030714
X077205Y-030107
X077232Y-03052
X077283Y-027205
X077283Y-029488
X077323Y-028169
X077323Y-028524
X077362Y-024252
X077362Y-024734
X077362Y-02502
X077362Y-032441
X077362Y-024537
X077382Y-031959
X077382Y-032156
X077392Y-031673
X077441Y-027008
X077441Y-027165
X077441Y-029528
X077441Y-029685
X07748Y-028189
X07748Y-028504
X077598Y-027008
X077598Y-027165
X077598Y-029528
X077598Y-029685
X077628Y-0244
X077628Y-024862
X077628Y-031821
X077628Y-032283
X077638Y-028189
X077638Y-028504
X077795Y-028189
X077795Y-028504
X073299Y-023504
X073378Y-023642
X073535Y-023681
X073693Y-023681
X07385Y-023642
X073929Y-023504
X070677Y-023504
X070756Y-023642
X070913Y-023681
X071071Y-023681
X071228Y-023642
X071307Y-023504
X074205Y-023504
X074283Y-023642
X074441Y-023681
X074598Y-023681
X074756Y-023642
X074835Y-023504
X068866Y-023504
X068945Y-023642
X069102Y-023681
X06926Y-023681
X069417Y-023642
X069496Y-023504
X068866Y-033189
X068945Y-033051
X069102Y-033012
X06926Y-033012
X069417Y-033051
X069496Y-033189
X072394Y-023504
X072472Y-023642
X07263Y-023681
X072787Y-023681
X072945Y-023642
X073024Y-023504
X069772Y-033189
X06985Y-033051
X070008Y-033012
X070165Y-033012
X070323Y-033051
X070402Y-033189
X072394Y-033189
X072472Y-033051
X07263Y-033012
X072787Y-033012
X072945Y-033051
X073024Y-033189
X070677Y-033189
X070756Y-033051
X070913Y-033012
X071071Y-033012
X071228Y-033051
X071307Y-033189
X069772Y-023504
X06985Y-023642
X070008Y-023681
X070165Y-023681
X070323Y-023642
X070402Y-023504
X073299Y-033189
X073378Y-033051
X073535Y-033012
X073693Y-033012
X07385Y-033051
X073929Y-033189
X074205Y-033189
X074283Y-033051
X074441Y-033012
X074598Y-033012
X074756Y-033051
X074835Y-033189
T2
X075115Y-023836
X076476Y-024941
X076476Y-031756
X068602Y-023878
X067244Y-031713
X067244Y-02498
X075118Y-032854
X068604Y-032816
T4
X075787Y-025561
X077402Y-025561
X075772Y-03113
X077386Y-03113
X066378Y-026732
X067992Y-026732
T6
X067913Y-032283
X075787Y-032283
X067913Y-024409
X075787Y-024409
T3
G00X072807Y-023504
M15
G01X07261Y-023504
M16
G05
G00X069988Y-033189
M15
G01X070185Y-033189
M16
G05
G00X072807Y-033189
M15
G01X07261Y-033189
M16
G05
G00X070894Y-033189
M15
G01X071091Y-033189
M16
G05
G00X069988Y-023504
M15
G01X070185Y-023504
M16
G05
G00X073713Y-033189
M15
G01X073516Y-033189
M16
G05
G00X074618Y-033189
M15
G01X074421Y-033189
M16
G05
G00X073713Y-023504
M15
G01X073516Y-023504
M16
G05
G00X070894Y-023504
M15
G01X071091Y-023504
M16
G05
G00X074618Y-023504
M15
G01X074421Y-023504
M16
G05
G00X069083Y-023504
M15
G01X06928Y-023504
M16
G05
G00X069083Y-033189
M15
G01X06928Y-033189
M16
G05
T5
G00X0775Y-027638
M15
G01X077894Y-027638
M16
G05
G00X0775Y-029055
M15
G01X077894Y-029055
M16
G05
T0
M30
