G04 #@! TF.GenerationSoftware,KiCad,Pcbnew,(5.1.4)-1*
G04 #@! TF.CreationDate,2021-04-25T17:32:37+02:00*
G04 #@! TF.ProjectId,ultimateFC,756c7469-6d61-4746-9546-432e6b696361,rev?*
G04 #@! TF.SameCoordinates,Original*
G04 #@! TF.FileFunction,Legend,Bot*
G04 #@! TF.FilePolarity,Positive*
%FSLAX46Y46*%
G04 Gerber Fmt 4.6, Leading zero omitted, Abs format (unit mm)*
G04 Created by KiCad (PCBNEW (5.1.4)-1) date 2021-04-25 17:32:37*
%MOMM*%
%LPD*%
G04 APERTURE LIST*
%ADD10C,0.120000*%
%ADD11C,0.150000*%
%ADD12C,0.100000*%
%ADD13C,0.050000*%
G04 APERTURE END LIST*
D10*
X174600000Y-82000000D02*
G75*
G03X174600000Y-82000000I-2100000J0D01*
G01*
X194600000Y-62000000D02*
G75*
G03X194600000Y-62000000I-2100000J0D01*
G01*
X194600000Y-82000000D02*
G75*
G03X194600000Y-82000000I-2100000J0D01*
G01*
D11*
X174602380Y-62000000D02*
G75*
G03X174602380Y-62000000I-2102380J0D01*
G01*
D12*
G36*
X182000000Y-67750000D02*
G01*
X180000000Y-67000000D01*
X182000000Y-66100000D01*
X182000000Y-67750000D01*
G37*
X182000000Y-67750000D02*
X180000000Y-67000000D01*
X182000000Y-66100000D01*
X182000000Y-67750000D01*
D10*
X171201530Y-63608117D02*
G75*
G03X174300000Y-61010000I1298470J1598117D01*
G01*
X173440000Y-77450000D02*
X173440000Y-76950000D01*
X171160000Y-77450000D02*
X171160000Y-76950000D01*
X168960000Y-76950000D02*
X168960000Y-77450000D01*
X171240000Y-76950000D02*
X171240000Y-77450000D01*
X168960000Y-78650000D02*
X168960000Y-79150000D01*
X171240000Y-78650000D02*
X171240000Y-79150000D01*
X173440000Y-79150000D02*
X173440000Y-78650000D01*
X171160000Y-79150000D02*
X171160000Y-78650000D01*
X186410000Y-61380000D02*
X186410000Y-61880000D01*
X184050000Y-61380000D02*
X184050000Y-61880000D01*
X180950000Y-82620000D02*
X180950000Y-82120000D01*
X178590000Y-82620000D02*
X178590000Y-82120000D01*
X190400000Y-72520000D02*
X191190000Y-72520000D01*
X189500000Y-73440000D02*
X189500000Y-73660000D01*
X191100000Y-73440000D02*
X191100000Y-73660000D01*
X191190000Y-73310000D02*
X191190000Y-72520000D01*
X195987221Y-81490000D02*
X196312779Y-81490000D01*
X195987221Y-82510000D02*
X196312779Y-82510000D01*
X196312779Y-62640000D02*
X195987221Y-62640000D01*
X196312779Y-63660000D02*
X195987221Y-63660000D01*
X196315279Y-80340000D02*
X195989721Y-80340000D01*
X196315279Y-81360000D02*
X195989721Y-81360000D01*
X196312779Y-62510000D02*
X195987221Y-62510000D01*
X196312779Y-61490000D02*
X195987221Y-61490000D01*
X171800000Y-76400000D02*
X173650000Y-76400000D01*
X171800000Y-75200000D02*
X173650000Y-75200000D01*
X173650000Y-75200000D02*
X173650000Y-76400000D01*
D12*
X193650000Y-70425000D02*
X192550000Y-70425000D01*
X192550000Y-72025000D02*
X194050000Y-72025000D01*
X194100000Y-70425000D02*
G75*
G03X194100000Y-70425000I-100000J0D01*
G01*
D11*
X192692857Y-76067142D02*
X192740476Y-76114761D01*
X192883333Y-76162380D01*
X192978571Y-76162380D01*
X193121428Y-76114761D01*
X193216666Y-76019523D01*
X193264285Y-75924285D01*
X193311904Y-75733809D01*
X193311904Y-75590952D01*
X193264285Y-75400476D01*
X193216666Y-75305238D01*
X193121428Y-75210000D01*
X192978571Y-75162380D01*
X192883333Y-75162380D01*
X192740476Y-75210000D01*
X192692857Y-75257619D01*
X191788095Y-75162380D02*
X192264285Y-75162380D01*
X192311904Y-75638571D01*
X192264285Y-75590952D01*
X192169047Y-75543333D01*
X191930952Y-75543333D01*
X191835714Y-75590952D01*
X191788095Y-75638571D01*
X191740476Y-75733809D01*
X191740476Y-75971904D01*
X191788095Y-76067142D01*
X191835714Y-76114761D01*
X191930952Y-76162380D01*
X192169047Y-76162380D01*
X192264285Y-76114761D01*
X192311904Y-76067142D01*
X191407142Y-75162380D02*
X190788095Y-75162380D01*
X191121428Y-75543333D01*
X190978571Y-75543333D01*
X190883333Y-75590952D01*
X190835714Y-75638571D01*
X190788095Y-75733809D01*
X190788095Y-75971904D01*
X190835714Y-76067142D01*
X190883333Y-76114761D01*
X190978571Y-76162380D01*
X191264285Y-76162380D01*
X191359523Y-76114761D01*
X191407142Y-76067142D01*
X176302380Y-67508333D02*
X175826190Y-67175000D01*
X176302380Y-66936904D02*
X175302380Y-66936904D01*
X175302380Y-67317857D01*
X175350000Y-67413095D01*
X175397619Y-67460714D01*
X175492857Y-67508333D01*
X175635714Y-67508333D01*
X175730952Y-67460714D01*
X175778571Y-67413095D01*
X175826190Y-67317857D01*
X175826190Y-66936904D01*
X176302380Y-68460714D02*
X176302380Y-67889285D01*
X176302380Y-68175000D02*
X175302380Y-68175000D01*
X175445238Y-68079761D01*
X175540476Y-67984523D01*
X175588095Y-67889285D01*
X176141666Y-66377380D02*
X176475000Y-65901190D01*
X176713095Y-66377380D02*
X176713095Y-65377380D01*
X176332142Y-65377380D01*
X176236904Y-65425000D01*
X176189285Y-65472619D01*
X176141666Y-65567857D01*
X176141666Y-65710714D01*
X176189285Y-65805952D01*
X176236904Y-65853571D01*
X176332142Y-65901190D01*
X176713095Y-65901190D01*
X175760714Y-65472619D02*
X175713095Y-65425000D01*
X175617857Y-65377380D01*
X175379761Y-65377380D01*
X175284523Y-65425000D01*
X175236904Y-65472619D01*
X175189285Y-65567857D01*
X175189285Y-65663095D01*
X175236904Y-65805952D01*
X175808333Y-66377380D01*
X175189285Y-66377380D01*
X170052380Y-77083333D02*
X169576190Y-76750000D01*
X170052380Y-76511904D02*
X169052380Y-76511904D01*
X169052380Y-76892857D01*
X169100000Y-76988095D01*
X169147619Y-77035714D01*
X169242857Y-77083333D01*
X169385714Y-77083333D01*
X169480952Y-77035714D01*
X169528571Y-76988095D01*
X169576190Y-76892857D01*
X169576190Y-76511904D01*
X169052380Y-77988095D02*
X169052380Y-77511904D01*
X169528571Y-77464285D01*
X169480952Y-77511904D01*
X169433333Y-77607142D01*
X169433333Y-77845238D01*
X169480952Y-77940476D01*
X169528571Y-77988095D01*
X169623809Y-78035714D01*
X169861904Y-78035714D01*
X169957142Y-77988095D01*
X170004761Y-77940476D01*
X170052380Y-77845238D01*
X170052380Y-77607142D01*
X170004761Y-77511904D01*
X169957142Y-77464285D01*
X169026666Y-80032380D02*
X169360000Y-79556190D01*
X169598095Y-80032380D02*
X169598095Y-79032380D01*
X169217142Y-79032380D01*
X169121904Y-79080000D01*
X169074285Y-79127619D01*
X169026666Y-79222857D01*
X169026666Y-79365714D01*
X169074285Y-79460952D01*
X169121904Y-79508571D01*
X169217142Y-79556190D01*
X169598095Y-79556190D01*
X168550476Y-80032380D02*
X168360000Y-80032380D01*
X168264761Y-79984761D01*
X168217142Y-79937142D01*
X168121904Y-79794285D01*
X168074285Y-79603809D01*
X168074285Y-79222857D01*
X168121904Y-79127619D01*
X168169523Y-79080000D01*
X168264761Y-79032380D01*
X168455238Y-79032380D01*
X168550476Y-79080000D01*
X168598095Y-79127619D01*
X168645714Y-79222857D01*
X168645714Y-79460952D01*
X168598095Y-79556190D01*
X168550476Y-79603809D01*
X168455238Y-79651428D01*
X168264761Y-79651428D01*
X168169523Y-79603809D01*
X168121904Y-79556190D01*
X168074285Y-79460952D01*
X170102380Y-78557142D02*
X169626190Y-78223809D01*
X170102380Y-77985714D02*
X169102380Y-77985714D01*
X169102380Y-78366666D01*
X169150000Y-78461904D01*
X169197619Y-78509523D01*
X169292857Y-78557142D01*
X169435714Y-78557142D01*
X169530952Y-78509523D01*
X169578571Y-78461904D01*
X169626190Y-78366666D01*
X169626190Y-77985714D01*
X170102380Y-79509523D02*
X170102380Y-78938095D01*
X170102380Y-79223809D02*
X169102380Y-79223809D01*
X169245238Y-79128571D01*
X169340476Y-79033333D01*
X169388095Y-78938095D01*
X169102380Y-80128571D02*
X169102380Y-80223809D01*
X169150000Y-80319047D01*
X169197619Y-80366666D01*
X169292857Y-80414285D01*
X169483333Y-80461904D01*
X169721428Y-80461904D01*
X169911904Y-80414285D01*
X170007142Y-80366666D01*
X170054761Y-80319047D01*
X170102380Y-80223809D01*
X170102380Y-80128571D01*
X170054761Y-80033333D01*
X170007142Y-79985714D01*
X169911904Y-79938095D01*
X169721428Y-79890476D01*
X169483333Y-79890476D01*
X169292857Y-79938095D01*
X169197619Y-79985714D01*
X169150000Y-80033333D01*
X169102380Y-80128571D01*
X184172857Y-60762380D02*
X184506190Y-60286190D01*
X184744285Y-60762380D02*
X184744285Y-59762380D01*
X184363333Y-59762380D01*
X184268095Y-59810000D01*
X184220476Y-59857619D01*
X184172857Y-59952857D01*
X184172857Y-60095714D01*
X184220476Y-60190952D01*
X184268095Y-60238571D01*
X184363333Y-60286190D01*
X184744285Y-60286190D01*
X183220476Y-60762380D02*
X183791904Y-60762380D01*
X183506190Y-60762380D02*
X183506190Y-59762380D01*
X183601428Y-59905238D01*
X183696666Y-60000476D01*
X183791904Y-60048095D01*
X182839523Y-59857619D02*
X182791904Y-59810000D01*
X182696666Y-59762380D01*
X182458571Y-59762380D01*
X182363333Y-59810000D01*
X182315714Y-59857619D01*
X182268095Y-59952857D01*
X182268095Y-60048095D01*
X182315714Y-60190952D01*
X182887142Y-60762380D01*
X182268095Y-60762380D01*
X184162857Y-60162380D02*
X184496190Y-59686190D01*
X184734285Y-60162380D02*
X184734285Y-59162380D01*
X184353333Y-59162380D01*
X184258095Y-59210000D01*
X184210476Y-59257619D01*
X184162857Y-59352857D01*
X184162857Y-59495714D01*
X184210476Y-59590952D01*
X184258095Y-59638571D01*
X184353333Y-59686190D01*
X184734285Y-59686190D01*
X183210476Y-60162380D02*
X183781904Y-60162380D01*
X183496190Y-60162380D02*
X183496190Y-59162380D01*
X183591428Y-59305238D01*
X183686666Y-59400476D01*
X183781904Y-59448095D01*
X182353333Y-59495714D02*
X182353333Y-60162380D01*
X182591428Y-59114761D02*
X182829523Y-59829047D01*
X182210476Y-59829047D01*
X188162857Y-64562380D02*
X188496190Y-64086190D01*
X188734285Y-64562380D02*
X188734285Y-63562380D01*
X188353333Y-63562380D01*
X188258095Y-63610000D01*
X188210476Y-63657619D01*
X188162857Y-63752857D01*
X188162857Y-63895714D01*
X188210476Y-63990952D01*
X188258095Y-64038571D01*
X188353333Y-64086190D01*
X188734285Y-64086190D01*
X187210476Y-64562380D02*
X187781904Y-64562380D01*
X187496190Y-64562380D02*
X187496190Y-63562380D01*
X187591428Y-63705238D01*
X187686666Y-63800476D01*
X187781904Y-63848095D01*
X186353333Y-63562380D02*
X186543809Y-63562380D01*
X186639047Y-63610000D01*
X186686666Y-63657619D01*
X186781904Y-63800476D01*
X186829523Y-63990952D01*
X186829523Y-64371904D01*
X186781904Y-64467142D01*
X186734285Y-64514761D01*
X186639047Y-64562380D01*
X186448571Y-64562380D01*
X186353333Y-64514761D01*
X186305714Y-64467142D01*
X186258095Y-64371904D01*
X186258095Y-64133809D01*
X186305714Y-64038571D01*
X186353333Y-63990952D01*
X186448571Y-63943333D01*
X186639047Y-63943333D01*
X186734285Y-63990952D01*
X186781904Y-64038571D01*
X186829523Y-64133809D01*
X188162857Y-63962380D02*
X188496190Y-63486190D01*
X188734285Y-63962380D02*
X188734285Y-62962380D01*
X188353333Y-62962380D01*
X188258095Y-63010000D01*
X188210476Y-63057619D01*
X188162857Y-63152857D01*
X188162857Y-63295714D01*
X188210476Y-63390952D01*
X188258095Y-63438571D01*
X188353333Y-63486190D01*
X188734285Y-63486190D01*
X187210476Y-63962380D02*
X187781904Y-63962380D01*
X187496190Y-63962380D02*
X187496190Y-62962380D01*
X187591428Y-63105238D01*
X187686666Y-63200476D01*
X187781904Y-63248095D01*
X186877142Y-62962380D02*
X186210476Y-62962380D01*
X186639047Y-63962380D01*
X192312380Y-74247142D02*
X191836190Y-73913809D01*
X192312380Y-73675714D02*
X191312380Y-73675714D01*
X191312380Y-74056666D01*
X191360000Y-74151904D01*
X191407619Y-74199523D01*
X191502857Y-74247142D01*
X191645714Y-74247142D01*
X191740952Y-74199523D01*
X191788571Y-74151904D01*
X191836190Y-74056666D01*
X191836190Y-73675714D01*
X191407619Y-74628095D02*
X191360000Y-74675714D01*
X191312380Y-74770952D01*
X191312380Y-75009047D01*
X191360000Y-75104285D01*
X191407619Y-75151904D01*
X191502857Y-75199523D01*
X191598095Y-75199523D01*
X191740952Y-75151904D01*
X192312380Y-74580476D01*
X192312380Y-75199523D01*
X192312380Y-76151904D02*
X192312380Y-75580476D01*
X192312380Y-75866190D02*
X191312380Y-75866190D01*
X191455238Y-75770952D01*
X191550476Y-75675714D01*
X191598095Y-75580476D01*
X196127380Y-70757142D02*
X195651190Y-70423809D01*
X196127380Y-70185714D02*
X195127380Y-70185714D01*
X195127380Y-70566666D01*
X195175000Y-70661904D01*
X195222619Y-70709523D01*
X195317857Y-70757142D01*
X195460714Y-70757142D01*
X195555952Y-70709523D01*
X195603571Y-70661904D01*
X195651190Y-70566666D01*
X195651190Y-70185714D01*
X195222619Y-71138095D02*
X195175000Y-71185714D01*
X195127380Y-71280952D01*
X195127380Y-71519047D01*
X195175000Y-71614285D01*
X195222619Y-71661904D01*
X195317857Y-71709523D01*
X195413095Y-71709523D01*
X195555952Y-71661904D01*
X196127380Y-71090476D01*
X196127380Y-71709523D01*
X195222619Y-72090476D02*
X195175000Y-72138095D01*
X195127380Y-72233333D01*
X195127380Y-72471428D01*
X195175000Y-72566666D01*
X195222619Y-72614285D01*
X195317857Y-72661904D01*
X195413095Y-72661904D01*
X195555952Y-72614285D01*
X196127380Y-72042857D01*
X196127380Y-72661904D01*
X182112857Y-84142380D02*
X182446190Y-83666190D01*
X182684285Y-84142380D02*
X182684285Y-83142380D01*
X182303333Y-83142380D01*
X182208095Y-83190000D01*
X182160476Y-83237619D01*
X182112857Y-83332857D01*
X182112857Y-83475714D01*
X182160476Y-83570952D01*
X182208095Y-83618571D01*
X182303333Y-83666190D01*
X182684285Y-83666190D01*
X181731904Y-83237619D02*
X181684285Y-83190000D01*
X181589047Y-83142380D01*
X181350952Y-83142380D01*
X181255714Y-83190000D01*
X181208095Y-83237619D01*
X181160476Y-83332857D01*
X181160476Y-83428095D01*
X181208095Y-83570952D01*
X181779523Y-84142380D01*
X181160476Y-84142380D01*
X180827142Y-83142380D02*
X180208095Y-83142380D01*
X180541428Y-83523333D01*
X180398571Y-83523333D01*
X180303333Y-83570952D01*
X180255714Y-83618571D01*
X180208095Y-83713809D01*
X180208095Y-83951904D01*
X180255714Y-84047142D01*
X180303333Y-84094761D01*
X180398571Y-84142380D01*
X180684285Y-84142380D01*
X180779523Y-84094761D01*
X180827142Y-84047142D01*
X182112857Y-84742380D02*
X182446190Y-84266190D01*
X182684285Y-84742380D02*
X182684285Y-83742380D01*
X182303333Y-83742380D01*
X182208095Y-83790000D01*
X182160476Y-83837619D01*
X182112857Y-83932857D01*
X182112857Y-84075714D01*
X182160476Y-84170952D01*
X182208095Y-84218571D01*
X182303333Y-84266190D01*
X182684285Y-84266190D01*
X181731904Y-83837619D02*
X181684285Y-83790000D01*
X181589047Y-83742380D01*
X181350952Y-83742380D01*
X181255714Y-83790000D01*
X181208095Y-83837619D01*
X181160476Y-83932857D01*
X181160476Y-84028095D01*
X181208095Y-84170952D01*
X181779523Y-84742380D01*
X181160476Y-84742380D01*
X180255714Y-83742380D02*
X180731904Y-83742380D01*
X180779523Y-84218571D01*
X180731904Y-84170952D01*
X180636666Y-84123333D01*
X180398571Y-84123333D01*
X180303333Y-84170952D01*
X180255714Y-84218571D01*
X180208095Y-84313809D01*
X180208095Y-84551904D01*
X180255714Y-84647142D01*
X180303333Y-84694761D01*
X180398571Y-84742380D01*
X180636666Y-84742380D01*
X180731904Y-84694761D01*
X180779523Y-84647142D01*
X178082857Y-80342380D02*
X178416190Y-79866190D01*
X178654285Y-80342380D02*
X178654285Y-79342380D01*
X178273333Y-79342380D01*
X178178095Y-79390000D01*
X178130476Y-79437619D01*
X178082857Y-79532857D01*
X178082857Y-79675714D01*
X178130476Y-79770952D01*
X178178095Y-79818571D01*
X178273333Y-79866190D01*
X178654285Y-79866190D01*
X177701904Y-79437619D02*
X177654285Y-79390000D01*
X177559047Y-79342380D01*
X177320952Y-79342380D01*
X177225714Y-79390000D01*
X177178095Y-79437619D01*
X177130476Y-79532857D01*
X177130476Y-79628095D01*
X177178095Y-79770952D01*
X177749523Y-80342380D01*
X177130476Y-80342380D01*
X176559047Y-79770952D02*
X176654285Y-79723333D01*
X176701904Y-79675714D01*
X176749523Y-79580476D01*
X176749523Y-79532857D01*
X176701904Y-79437619D01*
X176654285Y-79390000D01*
X176559047Y-79342380D01*
X176368571Y-79342380D01*
X176273333Y-79390000D01*
X176225714Y-79437619D01*
X176178095Y-79532857D01*
X176178095Y-79580476D01*
X176225714Y-79675714D01*
X176273333Y-79723333D01*
X176368571Y-79770952D01*
X176559047Y-79770952D01*
X176654285Y-79818571D01*
X176701904Y-79866190D01*
X176749523Y-79961428D01*
X176749523Y-80151904D01*
X176701904Y-80247142D01*
X176654285Y-80294761D01*
X176559047Y-80342380D01*
X176368571Y-80342380D01*
X176273333Y-80294761D01*
X176225714Y-80247142D01*
X176178095Y-80151904D01*
X176178095Y-79961428D01*
X176225714Y-79866190D01*
X176273333Y-79818571D01*
X176368571Y-79770952D01*
X178092857Y-80942380D02*
X178426190Y-80466190D01*
X178664285Y-80942380D02*
X178664285Y-79942380D01*
X178283333Y-79942380D01*
X178188095Y-79990000D01*
X178140476Y-80037619D01*
X178092857Y-80132857D01*
X178092857Y-80275714D01*
X178140476Y-80370952D01*
X178188095Y-80418571D01*
X178283333Y-80466190D01*
X178664285Y-80466190D01*
X177711904Y-80037619D02*
X177664285Y-79990000D01*
X177569047Y-79942380D01*
X177330952Y-79942380D01*
X177235714Y-79990000D01*
X177188095Y-80037619D01*
X177140476Y-80132857D01*
X177140476Y-80228095D01*
X177188095Y-80370952D01*
X177759523Y-80942380D01*
X177140476Y-80942380D01*
X176664285Y-80942380D02*
X176473809Y-80942380D01*
X176378571Y-80894761D01*
X176330952Y-80847142D01*
X176235714Y-80704285D01*
X176188095Y-80513809D01*
X176188095Y-80132857D01*
X176235714Y-80037619D01*
X176283333Y-79990000D01*
X176378571Y-79942380D01*
X176569047Y-79942380D01*
X176664285Y-79990000D01*
X176711904Y-80037619D01*
X176759523Y-80132857D01*
X176759523Y-80370952D01*
X176711904Y-80466190D01*
X176664285Y-80513809D01*
X176569047Y-80561428D01*
X176378571Y-80561428D01*
X176283333Y-80513809D01*
X176235714Y-80466190D01*
X176188095Y-80370952D01*
X183752380Y-76762142D02*
X183276190Y-76428809D01*
X183752380Y-76190714D02*
X182752380Y-76190714D01*
X182752380Y-76571666D01*
X182800000Y-76666904D01*
X182847619Y-76714523D01*
X182942857Y-76762142D01*
X183085714Y-76762142D01*
X183180952Y-76714523D01*
X183228571Y-76666904D01*
X183276190Y-76571666D01*
X183276190Y-76190714D01*
X183085714Y-77619285D02*
X183752380Y-77619285D01*
X182704761Y-77381190D02*
X183419047Y-77143095D01*
X183419047Y-77762142D01*
X183180952Y-78285952D02*
X183133333Y-78190714D01*
X183085714Y-78143095D01*
X182990476Y-78095476D01*
X182942857Y-78095476D01*
X182847619Y-78143095D01*
X182800000Y-78190714D01*
X182752380Y-78285952D01*
X182752380Y-78476428D01*
X182800000Y-78571666D01*
X182847619Y-78619285D01*
X182942857Y-78666904D01*
X182990476Y-78666904D01*
X183085714Y-78619285D01*
X183133333Y-78571666D01*
X183180952Y-78476428D01*
X183180952Y-78285952D01*
X183228571Y-78190714D01*
X183276190Y-78143095D01*
X183371428Y-78095476D01*
X183561904Y-78095476D01*
X183657142Y-78143095D01*
X183704761Y-78190714D01*
X183752380Y-78285952D01*
X183752380Y-78476428D01*
X183704761Y-78571666D01*
X183657142Y-78619285D01*
X183561904Y-78666904D01*
X183371428Y-78666904D01*
X183276190Y-78619285D01*
X183228571Y-78571666D01*
X183180952Y-78476428D01*
X189352380Y-70047142D02*
X188876190Y-69713809D01*
X189352380Y-69475714D02*
X188352380Y-69475714D01*
X188352380Y-69856666D01*
X188400000Y-69951904D01*
X188447619Y-69999523D01*
X188542857Y-70047142D01*
X188685714Y-70047142D01*
X188780952Y-69999523D01*
X188828571Y-69951904D01*
X188876190Y-69856666D01*
X188876190Y-69475714D01*
X188352380Y-70951904D02*
X188352380Y-70475714D01*
X188828571Y-70428095D01*
X188780952Y-70475714D01*
X188733333Y-70570952D01*
X188733333Y-70809047D01*
X188780952Y-70904285D01*
X188828571Y-70951904D01*
X188923809Y-70999523D01*
X189161904Y-70999523D01*
X189257142Y-70951904D01*
X189304761Y-70904285D01*
X189352380Y-70809047D01*
X189352380Y-70570952D01*
X189304761Y-70475714D01*
X189257142Y-70428095D01*
X188780952Y-71570952D02*
X188733333Y-71475714D01*
X188685714Y-71428095D01*
X188590476Y-71380476D01*
X188542857Y-71380476D01*
X188447619Y-71428095D01*
X188400000Y-71475714D01*
X188352380Y-71570952D01*
X188352380Y-71761428D01*
X188400000Y-71856666D01*
X188447619Y-71904285D01*
X188542857Y-71951904D01*
X188590476Y-71951904D01*
X188685714Y-71904285D01*
X188733333Y-71856666D01*
X188780952Y-71761428D01*
X188780952Y-71570952D01*
X188828571Y-71475714D01*
X188876190Y-71428095D01*
X188971428Y-71380476D01*
X189161904Y-71380476D01*
X189257142Y-71428095D01*
X189304761Y-71475714D01*
X189352380Y-71570952D01*
X189352380Y-71761428D01*
X189304761Y-71856666D01*
X189257142Y-71904285D01*
X189161904Y-71951904D01*
X188971428Y-71951904D01*
X188876190Y-71904285D01*
X188828571Y-71856666D01*
X188780952Y-71761428D01*
X187782380Y-60939523D02*
X187306190Y-60606190D01*
X187782380Y-60368095D02*
X186782380Y-60368095D01*
X186782380Y-60749047D01*
X186830000Y-60844285D01*
X186877619Y-60891904D01*
X186972857Y-60939523D01*
X187115714Y-60939523D01*
X187210952Y-60891904D01*
X187258571Y-60844285D01*
X187306190Y-60749047D01*
X187306190Y-60368095D01*
X187782380Y-61368095D02*
X186782380Y-61368095D01*
X187782380Y-61939523D01*
X186782380Y-61939523D01*
X187782380Y-62939523D02*
X187782380Y-62368095D01*
X187782380Y-62653809D02*
X186782380Y-62653809D01*
X186925238Y-62558571D01*
X187020476Y-62463333D01*
X187068095Y-62368095D01*
X178122380Y-81203333D02*
X177646190Y-80870000D01*
X178122380Y-80631904D02*
X177122380Y-80631904D01*
X177122380Y-81012857D01*
X177170000Y-81108095D01*
X177217619Y-81155714D01*
X177312857Y-81203333D01*
X177455714Y-81203333D01*
X177550952Y-81155714D01*
X177598571Y-81108095D01*
X177646190Y-81012857D01*
X177646190Y-80631904D01*
X178122380Y-81631904D02*
X177122380Y-81631904D01*
X178122380Y-82203333D01*
X177122380Y-82203333D01*
X178122380Y-83203333D02*
X178122380Y-82631904D01*
X178122380Y-82917619D02*
X177122380Y-82917619D01*
X177265238Y-82822380D01*
X177360476Y-82727142D01*
X177408095Y-82631904D01*
X177122380Y-84060476D02*
X177122380Y-83870000D01*
X177170000Y-83774761D01*
X177217619Y-83727142D01*
X177360476Y-83631904D01*
X177550952Y-83584285D01*
X177931904Y-83584285D01*
X178027142Y-83631904D01*
X178074761Y-83679523D01*
X178122380Y-83774761D01*
X178122380Y-83965238D01*
X178074761Y-84060476D01*
X178027142Y-84108095D01*
X177931904Y-84155714D01*
X177693809Y-84155714D01*
X177598571Y-84108095D01*
X177550952Y-84060476D01*
X177503333Y-83965238D01*
X177503333Y-83774761D01*
X177550952Y-83679523D01*
X177598571Y-83631904D01*
X177693809Y-83584285D01*
X190776190Y-71036190D02*
X190776190Y-71512380D01*
X191109523Y-70512380D02*
X190776190Y-71036190D01*
X190442857Y-70512380D01*
X190157142Y-70607619D02*
X190109523Y-70560000D01*
X190014285Y-70512380D01*
X189776190Y-70512380D01*
X189680952Y-70560000D01*
X189633333Y-70607619D01*
X189585714Y-70702857D01*
X189585714Y-70798095D01*
X189633333Y-70940952D01*
X190204761Y-71512380D01*
X189585714Y-71512380D01*
X196792857Y-83787142D02*
X196840476Y-83834761D01*
X196983333Y-83882380D01*
X197078571Y-83882380D01*
X197221428Y-83834761D01*
X197316666Y-83739523D01*
X197364285Y-83644285D01*
X197411904Y-83453809D01*
X197411904Y-83310952D01*
X197364285Y-83120476D01*
X197316666Y-83025238D01*
X197221428Y-82930000D01*
X197078571Y-82882380D01*
X196983333Y-82882380D01*
X196840476Y-82930000D01*
X196792857Y-82977619D01*
X196411904Y-82977619D02*
X196364285Y-82930000D01*
X196269047Y-82882380D01*
X196030952Y-82882380D01*
X195935714Y-82930000D01*
X195888095Y-82977619D01*
X195840476Y-83072857D01*
X195840476Y-83168095D01*
X195888095Y-83310952D01*
X196459523Y-83882380D01*
X195840476Y-83882380D01*
X195459523Y-82977619D02*
X195411904Y-82930000D01*
X195316666Y-82882380D01*
X195078571Y-82882380D01*
X194983333Y-82930000D01*
X194935714Y-82977619D01*
X194888095Y-83072857D01*
X194888095Y-83168095D01*
X194935714Y-83310952D01*
X195507142Y-83882380D01*
X194888095Y-83882380D01*
X196792857Y-62077142D02*
X196840476Y-62124761D01*
X196983333Y-62172380D01*
X197078571Y-62172380D01*
X197221428Y-62124761D01*
X197316666Y-62029523D01*
X197364285Y-61934285D01*
X197411904Y-61743809D01*
X197411904Y-61600952D01*
X197364285Y-61410476D01*
X197316666Y-61315238D01*
X197221428Y-61220000D01*
X197078571Y-61172380D01*
X196983333Y-61172380D01*
X196840476Y-61220000D01*
X196792857Y-61267619D01*
X196411904Y-61267619D02*
X196364285Y-61220000D01*
X196269047Y-61172380D01*
X196030952Y-61172380D01*
X195935714Y-61220000D01*
X195888095Y-61267619D01*
X195840476Y-61362857D01*
X195840476Y-61458095D01*
X195888095Y-61600952D01*
X196459523Y-62172380D01*
X195840476Y-62172380D01*
X195507142Y-61172380D02*
X194888095Y-61172380D01*
X195221428Y-61553333D01*
X195078571Y-61553333D01*
X194983333Y-61600952D01*
X194935714Y-61648571D01*
X194888095Y-61743809D01*
X194888095Y-61981904D01*
X194935714Y-62077142D01*
X194983333Y-62124761D01*
X195078571Y-62172380D01*
X195364285Y-62172380D01*
X195459523Y-62124761D01*
X195507142Y-62077142D01*
X196795357Y-79777142D02*
X196842976Y-79824761D01*
X196985833Y-79872380D01*
X197081071Y-79872380D01*
X197223928Y-79824761D01*
X197319166Y-79729523D01*
X197366785Y-79634285D01*
X197414404Y-79443809D01*
X197414404Y-79300952D01*
X197366785Y-79110476D01*
X197319166Y-79015238D01*
X197223928Y-78920000D01*
X197081071Y-78872380D01*
X196985833Y-78872380D01*
X196842976Y-78920000D01*
X196795357Y-78967619D01*
X196414404Y-78967619D02*
X196366785Y-78920000D01*
X196271547Y-78872380D01*
X196033452Y-78872380D01*
X195938214Y-78920000D01*
X195890595Y-78967619D01*
X195842976Y-79062857D01*
X195842976Y-79158095D01*
X195890595Y-79300952D01*
X196462023Y-79872380D01*
X195842976Y-79872380D01*
X194985833Y-79205714D02*
X194985833Y-79872380D01*
X195223928Y-78824761D02*
X195462023Y-79539047D01*
X194842976Y-79539047D01*
X196792857Y-60927142D02*
X196840476Y-60974761D01*
X196983333Y-61022380D01*
X197078571Y-61022380D01*
X197221428Y-60974761D01*
X197316666Y-60879523D01*
X197364285Y-60784285D01*
X197411904Y-60593809D01*
X197411904Y-60450952D01*
X197364285Y-60260476D01*
X197316666Y-60165238D01*
X197221428Y-60070000D01*
X197078571Y-60022380D01*
X196983333Y-60022380D01*
X196840476Y-60070000D01*
X196792857Y-60117619D01*
X195935714Y-60355714D02*
X195935714Y-61022380D01*
X196173809Y-59974761D02*
X196411904Y-60689047D01*
X195792857Y-60689047D01*
X194935714Y-60022380D02*
X195411904Y-60022380D01*
X195459523Y-60498571D01*
X195411904Y-60450952D01*
X195316666Y-60403333D01*
X195078571Y-60403333D01*
X194983333Y-60450952D01*
X194935714Y-60498571D01*
X194888095Y-60593809D01*
X194888095Y-60831904D01*
X194935714Y-60927142D01*
X194983333Y-60974761D01*
X195078571Y-61022380D01*
X195316666Y-61022380D01*
X195411904Y-60974761D01*
X195459523Y-60927142D01*
X188342380Y-66797142D02*
X187866190Y-66463809D01*
X188342380Y-66225714D02*
X187342380Y-66225714D01*
X187342380Y-66606666D01*
X187390000Y-66701904D01*
X187437619Y-66749523D01*
X187532857Y-66797142D01*
X187675714Y-66797142D01*
X187770952Y-66749523D01*
X187818571Y-66701904D01*
X187866190Y-66606666D01*
X187866190Y-66225714D01*
X187342380Y-67130476D02*
X187342380Y-67749523D01*
X187723333Y-67416190D01*
X187723333Y-67559047D01*
X187770952Y-67654285D01*
X187818571Y-67701904D01*
X187913809Y-67749523D01*
X188151904Y-67749523D01*
X188247142Y-67701904D01*
X188294761Y-67654285D01*
X188342380Y-67559047D01*
X188342380Y-67273333D01*
X188294761Y-67178095D01*
X188247142Y-67130476D01*
X188342380Y-68701904D02*
X188342380Y-68130476D01*
X188342380Y-68416190D02*
X187342380Y-68416190D01*
X187485238Y-68320952D01*
X187580476Y-68225714D01*
X187628095Y-68130476D01*
X190432380Y-76067142D02*
X189956190Y-75733809D01*
X190432380Y-75495714D02*
X189432380Y-75495714D01*
X189432380Y-75876666D01*
X189480000Y-75971904D01*
X189527619Y-76019523D01*
X189622857Y-76067142D01*
X189765714Y-76067142D01*
X189860952Y-76019523D01*
X189908571Y-75971904D01*
X189956190Y-75876666D01*
X189956190Y-75495714D01*
X189432380Y-76400476D02*
X189432380Y-77019523D01*
X189813333Y-76686190D01*
X189813333Y-76829047D01*
X189860952Y-76924285D01*
X189908571Y-76971904D01*
X190003809Y-77019523D01*
X190241904Y-77019523D01*
X190337142Y-76971904D01*
X190384761Y-76924285D01*
X190432380Y-76829047D01*
X190432380Y-76543333D01*
X190384761Y-76448095D01*
X190337142Y-76400476D01*
X189527619Y-77400476D02*
X189480000Y-77448095D01*
X189432380Y-77543333D01*
X189432380Y-77781428D01*
X189480000Y-77876666D01*
X189527619Y-77924285D01*
X189622857Y-77971904D01*
X189718095Y-77971904D01*
X189860952Y-77924285D01*
X190432380Y-77352857D01*
X190432380Y-77971904D01*
X187732380Y-66797142D02*
X187256190Y-66463809D01*
X187732380Y-66225714D02*
X186732380Y-66225714D01*
X186732380Y-66606666D01*
X186780000Y-66701904D01*
X186827619Y-66749523D01*
X186922857Y-66797142D01*
X187065714Y-66797142D01*
X187160952Y-66749523D01*
X187208571Y-66701904D01*
X187256190Y-66606666D01*
X187256190Y-66225714D01*
X186732380Y-67130476D02*
X186732380Y-67749523D01*
X187113333Y-67416190D01*
X187113333Y-67559047D01*
X187160952Y-67654285D01*
X187208571Y-67701904D01*
X187303809Y-67749523D01*
X187541904Y-67749523D01*
X187637142Y-67701904D01*
X187684761Y-67654285D01*
X187732380Y-67559047D01*
X187732380Y-67273333D01*
X187684761Y-67178095D01*
X187637142Y-67130476D01*
X186732380Y-68082857D02*
X186732380Y-68701904D01*
X187113333Y-68368571D01*
X187113333Y-68511428D01*
X187160952Y-68606666D01*
X187208571Y-68654285D01*
X187303809Y-68701904D01*
X187541904Y-68701904D01*
X187637142Y-68654285D01*
X187684761Y-68606666D01*
X187732380Y-68511428D01*
X187732380Y-68225714D01*
X187684761Y-68130476D01*
X187637142Y-68082857D01*
X189832380Y-76067142D02*
X189356190Y-75733809D01*
X189832380Y-75495714D02*
X188832380Y-75495714D01*
X188832380Y-75876666D01*
X188880000Y-75971904D01*
X188927619Y-76019523D01*
X189022857Y-76067142D01*
X189165714Y-76067142D01*
X189260952Y-76019523D01*
X189308571Y-75971904D01*
X189356190Y-75876666D01*
X189356190Y-75495714D01*
X188832380Y-76400476D02*
X188832380Y-77019523D01*
X189213333Y-76686190D01*
X189213333Y-76829047D01*
X189260952Y-76924285D01*
X189308571Y-76971904D01*
X189403809Y-77019523D01*
X189641904Y-77019523D01*
X189737142Y-76971904D01*
X189784761Y-76924285D01*
X189832380Y-76829047D01*
X189832380Y-76543333D01*
X189784761Y-76448095D01*
X189737142Y-76400476D01*
X189165714Y-77876666D02*
X189832380Y-77876666D01*
X188784761Y-77638571D02*
X189499047Y-77400476D01*
X189499047Y-78019523D01*
X181342380Y-75337142D02*
X180866190Y-75003809D01*
X181342380Y-74765714D02*
X180342380Y-74765714D01*
X180342380Y-75146666D01*
X180390000Y-75241904D01*
X180437619Y-75289523D01*
X180532857Y-75337142D01*
X180675714Y-75337142D01*
X180770952Y-75289523D01*
X180818571Y-75241904D01*
X180866190Y-75146666D01*
X180866190Y-74765714D01*
X180342380Y-75670476D02*
X180342380Y-76289523D01*
X180723333Y-75956190D01*
X180723333Y-76099047D01*
X180770952Y-76194285D01*
X180818571Y-76241904D01*
X180913809Y-76289523D01*
X181151904Y-76289523D01*
X181247142Y-76241904D01*
X181294761Y-76194285D01*
X181342380Y-76099047D01*
X181342380Y-75813333D01*
X181294761Y-75718095D01*
X181247142Y-75670476D01*
X180342380Y-77146666D02*
X180342380Y-76956190D01*
X180390000Y-76860952D01*
X180437619Y-76813333D01*
X180580476Y-76718095D01*
X180770952Y-76670476D01*
X181151904Y-76670476D01*
X181247142Y-76718095D01*
X181294761Y-76765714D01*
X181342380Y-76860952D01*
X181342380Y-77051428D01*
X181294761Y-77146666D01*
X181247142Y-77194285D01*
X181151904Y-77241904D01*
X180913809Y-77241904D01*
X180818571Y-77194285D01*
X180770952Y-77146666D01*
X180723333Y-77051428D01*
X180723333Y-76860952D01*
X180770952Y-76765714D01*
X180818571Y-76718095D01*
X180913809Y-76670476D01*
X181952380Y-75487142D02*
X181476190Y-75153809D01*
X181952380Y-74915714D02*
X180952380Y-74915714D01*
X180952380Y-75296666D01*
X181000000Y-75391904D01*
X181047619Y-75439523D01*
X181142857Y-75487142D01*
X181285714Y-75487142D01*
X181380952Y-75439523D01*
X181428571Y-75391904D01*
X181476190Y-75296666D01*
X181476190Y-74915714D01*
X180952380Y-75820476D02*
X180952380Y-76439523D01*
X181333333Y-76106190D01*
X181333333Y-76249047D01*
X181380952Y-76344285D01*
X181428571Y-76391904D01*
X181523809Y-76439523D01*
X181761904Y-76439523D01*
X181857142Y-76391904D01*
X181904761Y-76344285D01*
X181952380Y-76249047D01*
X181952380Y-75963333D01*
X181904761Y-75868095D01*
X181857142Y-75820476D01*
X180952380Y-76772857D02*
X180952380Y-77439523D01*
X181952380Y-77010952D01*
X173238095Y-74952380D02*
X173238095Y-73952380D01*
X173000000Y-73952380D01*
X172857142Y-74000000D01*
X172761904Y-74095238D01*
X172714285Y-74190476D01*
X172666666Y-74380952D01*
X172666666Y-74523809D01*
X172714285Y-74714285D01*
X172761904Y-74809523D01*
X172857142Y-74904761D01*
X173000000Y-74952380D01*
X173238095Y-74952380D01*
X172285714Y-74047619D02*
X172238095Y-74000000D01*
X172142857Y-73952380D01*
X171904761Y-73952380D01*
X171809523Y-74000000D01*
X171761904Y-74047619D01*
X171714285Y-74142857D01*
X171714285Y-74238095D01*
X171761904Y-74380952D01*
X172333333Y-74952380D01*
X171714285Y-74952380D01*
D13*
X170671428Y-64685714D02*
X170500000Y-64685714D01*
X170585714Y-64985714D02*
X170585714Y-64685714D01*
X170400000Y-64985714D02*
X170400000Y-64685714D01*
X170285714Y-64685714D01*
X170257142Y-64700000D01*
X170242857Y-64714285D01*
X170228571Y-64742857D01*
X170228571Y-64785714D01*
X170242857Y-64814285D01*
X170257142Y-64828571D01*
X170285714Y-64842857D01*
X170400000Y-64842857D01*
X170114285Y-64714285D02*
X170100000Y-64700000D01*
X170071428Y-64685714D01*
X170000000Y-64685714D01*
X169971428Y-64700000D01*
X169957142Y-64714285D01*
X169942857Y-64742857D01*
X169942857Y-64771428D01*
X169957142Y-64814285D01*
X170128571Y-64985714D01*
X169942857Y-64985714D01*
X169842857Y-64685714D02*
X169657142Y-64685714D01*
X169757142Y-64800000D01*
X169714285Y-64800000D01*
X169685714Y-64814285D01*
X169671428Y-64828571D01*
X169657142Y-64857142D01*
X169657142Y-64928571D01*
X169671428Y-64957142D01*
X169685714Y-64971428D01*
X169714285Y-64985714D01*
X169800000Y-64985714D01*
X169828571Y-64971428D01*
X169842857Y-64957142D01*
X195471428Y-73260714D02*
X195471428Y-73503571D01*
X195457142Y-73532142D01*
X195442857Y-73546428D01*
X195414285Y-73560714D01*
X195357142Y-73560714D01*
X195328571Y-73546428D01*
X195314285Y-73532142D01*
X195300000Y-73503571D01*
X195300000Y-73260714D01*
X195000000Y-73560714D02*
X195171428Y-73560714D01*
X195085714Y-73560714D02*
X195085714Y-73260714D01*
X195114285Y-73303571D01*
X195142857Y-73332142D01*
X195171428Y-73346428D01*
X194742857Y-73360714D02*
X194742857Y-73560714D01*
X194814285Y-73246428D02*
X194885714Y-73460714D01*
X194700000Y-73460714D01*
M02*
