G04 #@! TF.GenerationSoftware,KiCad,Pcbnew,(5.1.4)-1*
G04 #@! TF.CreationDate,2021-04-25T17:32:37+02:00*
G04 #@! TF.ProjectId,ultimateFC,756c7469-6d61-4746-9546-432e6b696361,rev?*
G04 #@! TF.SameCoordinates,Original*
G04 #@! TF.FileFunction,Legend,Top*
G04 #@! TF.FilePolarity,Positive*
%FSLAX46Y46*%
G04 Gerber Fmt 4.6, Leading zero omitted, Abs format (unit mm)*
G04 Created by KiCad (PCBNEW (5.1.4)-1) date 2021-04-25 17:32:37*
%MOMM*%
%LPD*%
G04 APERTURE LIST*
%ADD10C,0.120000*%
%ADD11C,0.100000*%
%ADD12C,0.150000*%
%ADD13C,0.050000*%
G04 APERTURE END LIST*
D10*
X194600000Y-82000000D02*
G75*
G03X194600000Y-82000000I-2100000J0D01*
G01*
X194600000Y-62000000D02*
G75*
G03X194600000Y-62000000I-2100000J0D01*
G01*
X174600000Y-62000000D02*
G75*
G03X174600000Y-62000000I-2100000J0D01*
G01*
D11*
G36*
X184750000Y-71150000D02*
G01*
X182750000Y-70250000D01*
X184750000Y-69500000D01*
X184750000Y-71150000D01*
G37*
X184750000Y-71150000D02*
X182750000Y-70250000D01*
X184750000Y-69500000D01*
X184750000Y-71150000D01*
D10*
X192500000Y-60300000D02*
X192500000Y-63700000D01*
D12*
X174602380Y-82000000D02*
G75*
G03X174602380Y-82000000I-2102380J0D01*
G01*
D10*
X193798470Y-63598117D02*
G75*
G02X190700000Y-61000000I-1298470J1598117D01*
G01*
X171240000Y-78650000D02*
X171240000Y-79150000D01*
X168960000Y-78650000D02*
X168960000Y-79150000D01*
X173440000Y-76950000D02*
X173440000Y-77450000D01*
X171160000Y-76950000D02*
X171160000Y-77450000D01*
X171240000Y-76950000D02*
X171240000Y-77450000D01*
X168960000Y-76950000D02*
X168960000Y-77450000D01*
X173440000Y-78650000D02*
X173440000Y-79150000D01*
X171160000Y-78650000D02*
X171160000Y-79150000D01*
X186410000Y-82620000D02*
X186410000Y-82120000D01*
X184050000Y-82620000D02*
X184050000Y-82120000D01*
X180950000Y-61380000D02*
X180950000Y-61880000D01*
X178590000Y-61380000D02*
X178590000Y-61880000D01*
X196312779Y-62640000D02*
X195987221Y-62640000D01*
X196312779Y-63660000D02*
X195987221Y-63660000D01*
X196312779Y-81490000D02*
X195987221Y-81490000D01*
X196312779Y-82510000D02*
X195987221Y-82510000D01*
X195987221Y-80340000D02*
X196312779Y-80340000D01*
X195987221Y-81360000D02*
X196312779Y-81360000D01*
X196312779Y-62510000D02*
X195987221Y-62510000D01*
X196312779Y-61490000D02*
X195987221Y-61490000D01*
X178415000Y-68320000D02*
X178415000Y-69730000D01*
X180735000Y-69730000D02*
X180735000Y-67700000D01*
X180735000Y-69730000D02*
X180075000Y-69730000D01*
X179075000Y-69730000D02*
X178415000Y-69730000D01*
D13*
X169788571Y-61435714D02*
X169960000Y-61435714D01*
X169874285Y-61735714D02*
X169874285Y-61435714D01*
X170060000Y-61735714D02*
X170060000Y-61435714D01*
X170174285Y-61435714D01*
X170202857Y-61450000D01*
X170217142Y-61464285D01*
X170231428Y-61492857D01*
X170231428Y-61535714D01*
X170217142Y-61564285D01*
X170202857Y-61578571D01*
X170174285Y-61592857D01*
X170060000Y-61592857D01*
X170345714Y-61464285D02*
X170360000Y-61450000D01*
X170388571Y-61435714D01*
X170460000Y-61435714D01*
X170488571Y-61450000D01*
X170502857Y-61464285D01*
X170517142Y-61492857D01*
X170517142Y-61521428D01*
X170502857Y-61564285D01*
X170331428Y-61735714D01*
X170517142Y-61735714D01*
X170660000Y-61735714D02*
X170717142Y-61735714D01*
X170745714Y-61721428D01*
X170760000Y-61707142D01*
X170788571Y-61664285D01*
X170802857Y-61607142D01*
X170802857Y-61492857D01*
X170788571Y-61464285D01*
X170774285Y-61450000D01*
X170745714Y-61435714D01*
X170688571Y-61435714D01*
X170660000Y-61450000D01*
X170645714Y-61464285D01*
X170631428Y-61492857D01*
X170631428Y-61564285D01*
X170645714Y-61592857D01*
X170660000Y-61607142D01*
X170688571Y-61621428D01*
X170745714Y-61621428D01*
X170774285Y-61607142D01*
X170788571Y-61592857D01*
X170802857Y-61564285D01*
D12*
X170732142Y-73807142D02*
X170684523Y-73854761D01*
X170541666Y-73902380D01*
X170446428Y-73902380D01*
X170303571Y-73854761D01*
X170208333Y-73759523D01*
X170160714Y-73664285D01*
X170113095Y-73473809D01*
X170113095Y-73330952D01*
X170160714Y-73140476D01*
X170208333Y-73045238D01*
X170303571Y-72950000D01*
X170446428Y-72902380D01*
X170541666Y-72902380D01*
X170684523Y-72950000D01*
X170732142Y-72997619D01*
X171636904Y-72902380D02*
X171160714Y-72902380D01*
X171113095Y-73378571D01*
X171160714Y-73330952D01*
X171255952Y-73283333D01*
X171494047Y-73283333D01*
X171589285Y-73330952D01*
X171636904Y-73378571D01*
X171684523Y-73473809D01*
X171684523Y-73711904D01*
X171636904Y-73807142D01*
X171589285Y-73854761D01*
X171494047Y-73902380D01*
X171255952Y-73902380D01*
X171160714Y-73854761D01*
X171113095Y-73807142D01*
X172541666Y-73235714D02*
X172541666Y-73902380D01*
X172303571Y-72854761D02*
X172065476Y-73569047D01*
X172684523Y-73569047D01*
X173402380Y-74286666D02*
X173402380Y-74762857D01*
X172402380Y-74762857D01*
X172735714Y-73524761D02*
X173402380Y-73524761D01*
X172354761Y-73762857D02*
X173069047Y-74000952D01*
X173069047Y-73381904D01*
X183452380Y-69016666D02*
X182976190Y-69350000D01*
X183452380Y-69588095D02*
X182452380Y-69588095D01*
X182452380Y-69207142D01*
X182500000Y-69111904D01*
X182547619Y-69064285D01*
X182642857Y-69016666D01*
X182785714Y-69016666D01*
X182880952Y-69064285D01*
X182928571Y-69111904D01*
X182976190Y-69207142D01*
X182976190Y-69588095D01*
X182785714Y-68159523D02*
X183452380Y-68159523D01*
X182404761Y-68397619D02*
X183119047Y-68635714D01*
X183119047Y-68016666D01*
X174838333Y-76202380D02*
X174505000Y-75726190D01*
X174266904Y-76202380D02*
X174266904Y-75202380D01*
X174647857Y-75202380D01*
X174743095Y-75250000D01*
X174790714Y-75297619D01*
X174838333Y-75392857D01*
X174838333Y-75535714D01*
X174790714Y-75630952D01*
X174743095Y-75678571D01*
X174647857Y-75726190D01*
X174266904Y-75726190D01*
X175171666Y-75202380D02*
X175838333Y-75202380D01*
X175409761Y-76202380D01*
X176153333Y-76202380D02*
X175820000Y-75726190D01*
X175581904Y-76202380D02*
X175581904Y-75202380D01*
X175962857Y-75202380D01*
X176058095Y-75250000D01*
X176105714Y-75297619D01*
X176153333Y-75392857D01*
X176153333Y-75535714D01*
X176105714Y-75630952D01*
X176058095Y-75678571D01*
X175962857Y-75726190D01*
X175581904Y-75726190D01*
X176724761Y-75630952D02*
X176629523Y-75583333D01*
X176581904Y-75535714D01*
X176534285Y-75440476D01*
X176534285Y-75392857D01*
X176581904Y-75297619D01*
X176629523Y-75250000D01*
X176724761Y-75202380D01*
X176915238Y-75202380D01*
X177010476Y-75250000D01*
X177058095Y-75297619D01*
X177105714Y-75392857D01*
X177105714Y-75440476D01*
X177058095Y-75535714D01*
X177010476Y-75583333D01*
X176915238Y-75630952D01*
X176724761Y-75630952D01*
X176629523Y-75678571D01*
X176581904Y-75726190D01*
X176534285Y-75821428D01*
X176534285Y-76011904D01*
X176581904Y-76107142D01*
X176629523Y-76154761D01*
X176724761Y-76202380D01*
X176915238Y-76202380D01*
X177010476Y-76154761D01*
X177058095Y-76107142D01*
X177105714Y-76011904D01*
X177105714Y-75821428D01*
X177058095Y-75726190D01*
X177010476Y-75678571D01*
X176915238Y-75630952D01*
X170807142Y-74502380D02*
X170473809Y-74026190D01*
X170235714Y-74502380D02*
X170235714Y-73502380D01*
X170616666Y-73502380D01*
X170711904Y-73550000D01*
X170759523Y-73597619D01*
X170807142Y-73692857D01*
X170807142Y-73835714D01*
X170759523Y-73930952D01*
X170711904Y-73978571D01*
X170616666Y-74026190D01*
X170235714Y-74026190D01*
X171759523Y-74502380D02*
X171188095Y-74502380D01*
X171473809Y-74502380D02*
X171473809Y-73502380D01*
X171378571Y-73645238D01*
X171283333Y-73740476D01*
X171188095Y-73788095D01*
X172711904Y-74502380D02*
X172140476Y-74502380D01*
X172426190Y-74502380D02*
X172426190Y-73502380D01*
X172330952Y-73645238D01*
X172235714Y-73740476D01*
X172140476Y-73788095D01*
X182907142Y-84152380D02*
X182573809Y-83676190D01*
X182335714Y-84152380D02*
X182335714Y-83152380D01*
X182716666Y-83152380D01*
X182811904Y-83200000D01*
X182859523Y-83247619D01*
X182907142Y-83342857D01*
X182907142Y-83485714D01*
X182859523Y-83580952D01*
X182811904Y-83628571D01*
X182716666Y-83676190D01*
X182335714Y-83676190D01*
X183859523Y-84152380D02*
X183288095Y-84152380D01*
X183573809Y-84152380D02*
X183573809Y-83152380D01*
X183478571Y-83295238D01*
X183383333Y-83390476D01*
X183288095Y-83438095D01*
X184192857Y-83152380D02*
X184811904Y-83152380D01*
X184478571Y-83533333D01*
X184621428Y-83533333D01*
X184716666Y-83580952D01*
X184764285Y-83628571D01*
X184811904Y-83723809D01*
X184811904Y-83961904D01*
X184764285Y-84057142D01*
X184716666Y-84104761D01*
X184621428Y-84152380D01*
X184335714Y-84152380D01*
X184240476Y-84104761D01*
X184192857Y-84057142D01*
X182907142Y-84752380D02*
X182573809Y-84276190D01*
X182335714Y-84752380D02*
X182335714Y-83752380D01*
X182716666Y-83752380D01*
X182811904Y-83800000D01*
X182859523Y-83847619D01*
X182907142Y-83942857D01*
X182907142Y-84085714D01*
X182859523Y-84180952D01*
X182811904Y-84228571D01*
X182716666Y-84276190D01*
X182335714Y-84276190D01*
X183859523Y-84752380D02*
X183288095Y-84752380D01*
X183573809Y-84752380D02*
X183573809Y-83752380D01*
X183478571Y-83895238D01*
X183383333Y-83990476D01*
X183288095Y-84038095D01*
X184764285Y-83752380D02*
X184288095Y-83752380D01*
X184240476Y-84228571D01*
X184288095Y-84180952D01*
X184383333Y-84133333D01*
X184621428Y-84133333D01*
X184716666Y-84180952D01*
X184764285Y-84228571D01*
X184811904Y-84323809D01*
X184811904Y-84561904D01*
X184764285Y-84657142D01*
X184716666Y-84704761D01*
X184621428Y-84752380D01*
X184383333Y-84752380D01*
X184288095Y-84704761D01*
X184240476Y-84657142D01*
X186927142Y-80342380D02*
X186593809Y-79866190D01*
X186355714Y-80342380D02*
X186355714Y-79342380D01*
X186736666Y-79342380D01*
X186831904Y-79390000D01*
X186879523Y-79437619D01*
X186927142Y-79532857D01*
X186927142Y-79675714D01*
X186879523Y-79770952D01*
X186831904Y-79818571D01*
X186736666Y-79866190D01*
X186355714Y-79866190D01*
X187879523Y-80342380D02*
X187308095Y-80342380D01*
X187593809Y-80342380D02*
X187593809Y-79342380D01*
X187498571Y-79485238D01*
X187403333Y-79580476D01*
X187308095Y-79628095D01*
X188450952Y-79770952D02*
X188355714Y-79723333D01*
X188308095Y-79675714D01*
X188260476Y-79580476D01*
X188260476Y-79532857D01*
X188308095Y-79437619D01*
X188355714Y-79390000D01*
X188450952Y-79342380D01*
X188641428Y-79342380D01*
X188736666Y-79390000D01*
X188784285Y-79437619D01*
X188831904Y-79532857D01*
X188831904Y-79580476D01*
X188784285Y-79675714D01*
X188736666Y-79723333D01*
X188641428Y-79770952D01*
X188450952Y-79770952D01*
X188355714Y-79818571D01*
X188308095Y-79866190D01*
X188260476Y-79961428D01*
X188260476Y-80151904D01*
X188308095Y-80247142D01*
X188355714Y-80294761D01*
X188450952Y-80342380D01*
X188641428Y-80342380D01*
X188736666Y-80294761D01*
X188784285Y-80247142D01*
X188831904Y-80151904D01*
X188831904Y-79961428D01*
X188784285Y-79866190D01*
X188736666Y-79818571D01*
X188641428Y-79770952D01*
X186877142Y-80942380D02*
X186543809Y-80466190D01*
X186305714Y-80942380D02*
X186305714Y-79942380D01*
X186686666Y-79942380D01*
X186781904Y-79990000D01*
X186829523Y-80037619D01*
X186877142Y-80132857D01*
X186877142Y-80275714D01*
X186829523Y-80370952D01*
X186781904Y-80418571D01*
X186686666Y-80466190D01*
X186305714Y-80466190D01*
X187829523Y-80942380D02*
X187258095Y-80942380D01*
X187543809Y-80942380D02*
X187543809Y-79942380D01*
X187448571Y-80085238D01*
X187353333Y-80180476D01*
X187258095Y-80228095D01*
X188305714Y-80942380D02*
X188496190Y-80942380D01*
X188591428Y-80894761D01*
X188639047Y-80847142D01*
X188734285Y-80704285D01*
X188781904Y-80513809D01*
X188781904Y-80132857D01*
X188734285Y-80037619D01*
X188686666Y-79990000D01*
X188591428Y-79942380D01*
X188400952Y-79942380D01*
X188305714Y-79990000D01*
X188258095Y-80037619D01*
X188210476Y-80132857D01*
X188210476Y-80370952D01*
X188258095Y-80466190D01*
X188305714Y-80513809D01*
X188400952Y-80561428D01*
X188591428Y-80561428D01*
X188686666Y-80513809D01*
X188734285Y-80466190D01*
X188781904Y-80370952D01*
X180827142Y-60762380D02*
X180493809Y-60286190D01*
X180255714Y-60762380D02*
X180255714Y-59762380D01*
X180636666Y-59762380D01*
X180731904Y-59810000D01*
X180779523Y-59857619D01*
X180827142Y-59952857D01*
X180827142Y-60095714D01*
X180779523Y-60190952D01*
X180731904Y-60238571D01*
X180636666Y-60286190D01*
X180255714Y-60286190D01*
X181208095Y-59857619D02*
X181255714Y-59810000D01*
X181350952Y-59762380D01*
X181589047Y-59762380D01*
X181684285Y-59810000D01*
X181731904Y-59857619D01*
X181779523Y-59952857D01*
X181779523Y-60048095D01*
X181731904Y-60190952D01*
X181160476Y-60762380D01*
X181779523Y-60762380D01*
X182398571Y-59762380D02*
X182493809Y-59762380D01*
X182589047Y-59810000D01*
X182636666Y-59857619D01*
X182684285Y-59952857D01*
X182731904Y-60143333D01*
X182731904Y-60381428D01*
X182684285Y-60571904D01*
X182636666Y-60667142D01*
X182589047Y-60714761D01*
X182493809Y-60762380D01*
X182398571Y-60762380D01*
X182303333Y-60714761D01*
X182255714Y-60667142D01*
X182208095Y-60571904D01*
X182160476Y-60381428D01*
X182160476Y-60143333D01*
X182208095Y-59952857D01*
X182255714Y-59857619D01*
X182303333Y-59810000D01*
X182398571Y-59762380D01*
X180827142Y-60162380D02*
X180493809Y-59686190D01*
X180255714Y-60162380D02*
X180255714Y-59162380D01*
X180636666Y-59162380D01*
X180731904Y-59210000D01*
X180779523Y-59257619D01*
X180827142Y-59352857D01*
X180827142Y-59495714D01*
X180779523Y-59590952D01*
X180731904Y-59638571D01*
X180636666Y-59686190D01*
X180255714Y-59686190D01*
X181208095Y-59257619D02*
X181255714Y-59210000D01*
X181350952Y-59162380D01*
X181589047Y-59162380D01*
X181684285Y-59210000D01*
X181731904Y-59257619D01*
X181779523Y-59352857D01*
X181779523Y-59448095D01*
X181731904Y-59590952D01*
X181160476Y-60162380D01*
X181779523Y-60162380D01*
X182636666Y-59495714D02*
X182636666Y-60162380D01*
X182398571Y-59114761D02*
X182160476Y-59829047D01*
X182779523Y-59829047D01*
X176787142Y-64562380D02*
X176453809Y-64086190D01*
X176215714Y-64562380D02*
X176215714Y-63562380D01*
X176596666Y-63562380D01*
X176691904Y-63610000D01*
X176739523Y-63657619D01*
X176787142Y-63752857D01*
X176787142Y-63895714D01*
X176739523Y-63990952D01*
X176691904Y-64038571D01*
X176596666Y-64086190D01*
X176215714Y-64086190D01*
X177168095Y-63657619D02*
X177215714Y-63610000D01*
X177310952Y-63562380D01*
X177549047Y-63562380D01*
X177644285Y-63610000D01*
X177691904Y-63657619D01*
X177739523Y-63752857D01*
X177739523Y-63848095D01*
X177691904Y-63990952D01*
X177120476Y-64562380D01*
X177739523Y-64562380D01*
X178596666Y-63562380D02*
X178406190Y-63562380D01*
X178310952Y-63610000D01*
X178263333Y-63657619D01*
X178168095Y-63800476D01*
X178120476Y-63990952D01*
X178120476Y-64371904D01*
X178168095Y-64467142D01*
X178215714Y-64514761D01*
X178310952Y-64562380D01*
X178501428Y-64562380D01*
X178596666Y-64514761D01*
X178644285Y-64467142D01*
X178691904Y-64371904D01*
X178691904Y-64133809D01*
X178644285Y-64038571D01*
X178596666Y-63990952D01*
X178501428Y-63943333D01*
X178310952Y-63943333D01*
X178215714Y-63990952D01*
X178168095Y-64038571D01*
X178120476Y-64133809D01*
X176787142Y-63962380D02*
X176453809Y-63486190D01*
X176215714Y-63962380D02*
X176215714Y-62962380D01*
X176596666Y-62962380D01*
X176691904Y-63010000D01*
X176739523Y-63057619D01*
X176787142Y-63152857D01*
X176787142Y-63295714D01*
X176739523Y-63390952D01*
X176691904Y-63438571D01*
X176596666Y-63486190D01*
X176215714Y-63486190D01*
X177168095Y-63057619D02*
X177215714Y-63010000D01*
X177310952Y-62962380D01*
X177549047Y-62962380D01*
X177644285Y-63010000D01*
X177691904Y-63057619D01*
X177739523Y-63152857D01*
X177739523Y-63248095D01*
X177691904Y-63390952D01*
X177120476Y-63962380D01*
X177739523Y-63962380D01*
X178072857Y-62962380D02*
X178739523Y-62962380D01*
X178310952Y-63962380D01*
X170252380Y-64192857D02*
X169776190Y-64526190D01*
X170252380Y-64764285D02*
X169252380Y-64764285D01*
X169252380Y-64383333D01*
X169300000Y-64288095D01*
X169347619Y-64240476D01*
X169442857Y-64192857D01*
X169585714Y-64192857D01*
X169680952Y-64240476D01*
X169728571Y-64288095D01*
X169776190Y-64383333D01*
X169776190Y-64764285D01*
X169252380Y-63859523D02*
X169252380Y-63240476D01*
X169633333Y-63573809D01*
X169633333Y-63430952D01*
X169680952Y-63335714D01*
X169728571Y-63288095D01*
X169823809Y-63240476D01*
X170061904Y-63240476D01*
X170157142Y-63288095D01*
X170204761Y-63335714D01*
X170252380Y-63430952D01*
X170252380Y-63716666D01*
X170204761Y-63811904D01*
X170157142Y-63859523D01*
X169252380Y-62621428D02*
X169252380Y-62526190D01*
X169300000Y-62430952D01*
X169347619Y-62383333D01*
X169442857Y-62335714D01*
X169633333Y-62288095D01*
X169871428Y-62288095D01*
X170061904Y-62335714D01*
X170157142Y-62383333D01*
X170204761Y-62430952D01*
X170252380Y-62526190D01*
X170252380Y-62621428D01*
X170204761Y-62716666D01*
X170157142Y-62764285D01*
X170061904Y-62811904D01*
X169871428Y-62859523D01*
X169633333Y-62859523D01*
X169442857Y-62811904D01*
X169347619Y-62764285D01*
X169300000Y-62716666D01*
X169252380Y-62621428D01*
X187782380Y-83060476D02*
X187306190Y-83393809D01*
X187782380Y-83631904D02*
X186782380Y-83631904D01*
X186782380Y-83250952D01*
X186830000Y-83155714D01*
X186877619Y-83108095D01*
X186972857Y-83060476D01*
X187115714Y-83060476D01*
X187210952Y-83108095D01*
X187258571Y-83155714D01*
X187306190Y-83250952D01*
X187306190Y-83631904D01*
X187782380Y-82631904D02*
X186782380Y-82631904D01*
X187782380Y-82060476D01*
X186782380Y-82060476D01*
X186877619Y-81631904D02*
X186830000Y-81584285D01*
X186782380Y-81489047D01*
X186782380Y-81250952D01*
X186830000Y-81155714D01*
X186877619Y-81108095D01*
X186972857Y-81060476D01*
X187068095Y-81060476D01*
X187210952Y-81108095D01*
X187782380Y-81679523D01*
X187782380Y-81060476D01*
X178122380Y-62320476D02*
X177646190Y-62653809D01*
X178122380Y-62891904D02*
X177122380Y-62891904D01*
X177122380Y-62510952D01*
X177170000Y-62415714D01*
X177217619Y-62368095D01*
X177312857Y-62320476D01*
X177455714Y-62320476D01*
X177550952Y-62368095D01*
X177598571Y-62415714D01*
X177646190Y-62510952D01*
X177646190Y-62891904D01*
X178122380Y-61891904D02*
X177122380Y-61891904D01*
X178122380Y-61320476D01*
X177122380Y-61320476D01*
X177122380Y-60939523D02*
X177122380Y-60272857D01*
X178122380Y-60701428D01*
X195507142Y-64937142D02*
X195459523Y-64984761D01*
X195316666Y-65032380D01*
X195221428Y-65032380D01*
X195078571Y-64984761D01*
X194983333Y-64889523D01*
X194935714Y-64794285D01*
X194888095Y-64603809D01*
X194888095Y-64460952D01*
X194935714Y-64270476D01*
X194983333Y-64175238D01*
X195078571Y-64080000D01*
X195221428Y-64032380D01*
X195316666Y-64032380D01*
X195459523Y-64080000D01*
X195507142Y-64127619D01*
X195888095Y-64127619D02*
X195935714Y-64080000D01*
X196030952Y-64032380D01*
X196269047Y-64032380D01*
X196364285Y-64080000D01*
X196411904Y-64127619D01*
X196459523Y-64222857D01*
X196459523Y-64318095D01*
X196411904Y-64460952D01*
X195840476Y-65032380D01*
X196459523Y-65032380D01*
X197364285Y-64032380D02*
X196888095Y-64032380D01*
X196840476Y-64508571D01*
X196888095Y-64460952D01*
X196983333Y-64413333D01*
X197221428Y-64413333D01*
X197316666Y-64460952D01*
X197364285Y-64508571D01*
X197411904Y-64603809D01*
X197411904Y-64841904D01*
X197364285Y-64937142D01*
X197316666Y-64984761D01*
X197221428Y-65032380D01*
X196983333Y-65032380D01*
X196888095Y-64984761D01*
X196840476Y-64937142D01*
X195507142Y-83787142D02*
X195459523Y-83834761D01*
X195316666Y-83882380D01*
X195221428Y-83882380D01*
X195078571Y-83834761D01*
X194983333Y-83739523D01*
X194935714Y-83644285D01*
X194888095Y-83453809D01*
X194888095Y-83310952D01*
X194935714Y-83120476D01*
X194983333Y-83025238D01*
X195078571Y-82930000D01*
X195221428Y-82882380D01*
X195316666Y-82882380D01*
X195459523Y-82930000D01*
X195507142Y-82977619D01*
X196364285Y-83215714D02*
X196364285Y-83882380D01*
X196126190Y-82834761D02*
X195888095Y-83549047D01*
X196507142Y-83549047D01*
X197316666Y-82882380D02*
X197126190Y-82882380D01*
X197030952Y-82930000D01*
X196983333Y-82977619D01*
X196888095Y-83120476D01*
X196840476Y-83310952D01*
X196840476Y-83691904D01*
X196888095Y-83787142D01*
X196935714Y-83834761D01*
X197030952Y-83882380D01*
X197221428Y-83882380D01*
X197316666Y-83834761D01*
X197364285Y-83787142D01*
X197411904Y-83691904D01*
X197411904Y-83453809D01*
X197364285Y-83358571D01*
X197316666Y-83310952D01*
X197221428Y-83263333D01*
X197030952Y-83263333D01*
X196935714Y-83310952D01*
X196888095Y-83358571D01*
X196840476Y-83453809D01*
X195507142Y-79777142D02*
X195459523Y-79824761D01*
X195316666Y-79872380D01*
X195221428Y-79872380D01*
X195078571Y-79824761D01*
X194983333Y-79729523D01*
X194935714Y-79634285D01*
X194888095Y-79443809D01*
X194888095Y-79300952D01*
X194935714Y-79110476D01*
X194983333Y-79015238D01*
X195078571Y-78920000D01*
X195221428Y-78872380D01*
X195316666Y-78872380D01*
X195459523Y-78920000D01*
X195507142Y-78967619D01*
X196411904Y-78872380D02*
X195935714Y-78872380D01*
X195888095Y-79348571D01*
X195935714Y-79300952D01*
X196030952Y-79253333D01*
X196269047Y-79253333D01*
X196364285Y-79300952D01*
X196411904Y-79348571D01*
X196459523Y-79443809D01*
X196459523Y-79681904D01*
X196411904Y-79777142D01*
X196364285Y-79824761D01*
X196269047Y-79872380D01*
X196030952Y-79872380D01*
X195935714Y-79824761D01*
X195888095Y-79777142D01*
X197364285Y-78872380D02*
X196888095Y-78872380D01*
X196840476Y-79348571D01*
X196888095Y-79300952D01*
X196983333Y-79253333D01*
X197221428Y-79253333D01*
X197316666Y-79300952D01*
X197364285Y-79348571D01*
X197411904Y-79443809D01*
X197411904Y-79681904D01*
X197364285Y-79777142D01*
X197316666Y-79824761D01*
X197221428Y-79872380D01*
X196983333Y-79872380D01*
X196888095Y-79824761D01*
X196840476Y-79777142D01*
X195507142Y-63787142D02*
X195459523Y-63834761D01*
X195316666Y-63882380D01*
X195221428Y-63882380D01*
X195078571Y-63834761D01*
X194983333Y-63739523D01*
X194935714Y-63644285D01*
X194888095Y-63453809D01*
X194888095Y-63310952D01*
X194935714Y-63120476D01*
X194983333Y-63025238D01*
X195078571Y-62930000D01*
X195221428Y-62882380D01*
X195316666Y-62882380D01*
X195459523Y-62930000D01*
X195507142Y-62977619D01*
X196411904Y-62882380D02*
X195935714Y-62882380D01*
X195888095Y-63358571D01*
X195935714Y-63310952D01*
X196030952Y-63263333D01*
X196269047Y-63263333D01*
X196364285Y-63310952D01*
X196411904Y-63358571D01*
X196459523Y-63453809D01*
X196459523Y-63691904D01*
X196411904Y-63787142D01*
X196364285Y-63834761D01*
X196269047Y-63882380D01*
X196030952Y-63882380D01*
X195935714Y-63834761D01*
X195888095Y-63787142D01*
X197316666Y-62882380D02*
X197126190Y-62882380D01*
X197030952Y-62930000D01*
X196983333Y-62977619D01*
X196888095Y-63120476D01*
X196840476Y-63310952D01*
X196840476Y-63691904D01*
X196888095Y-63787142D01*
X196935714Y-63834761D01*
X197030952Y-63882380D01*
X197221428Y-63882380D01*
X197316666Y-63834761D01*
X197364285Y-63787142D01*
X197411904Y-63691904D01*
X197411904Y-63453809D01*
X197364285Y-63358571D01*
X197316666Y-63310952D01*
X197221428Y-63263333D01*
X197030952Y-63263333D01*
X196935714Y-63310952D01*
X196888095Y-63358571D01*
X196840476Y-63453809D01*
X182072619Y-69045238D02*
X182025000Y-69140476D01*
X181929761Y-69235714D01*
X181786904Y-69378571D01*
X181739285Y-69473809D01*
X181739285Y-69569047D01*
X181977380Y-69521428D02*
X181929761Y-69616666D01*
X181834523Y-69711904D01*
X181644047Y-69759523D01*
X181310714Y-69759523D01*
X181120238Y-69711904D01*
X181025000Y-69616666D01*
X180977380Y-69521428D01*
X180977380Y-69330952D01*
X181025000Y-69235714D01*
X181120238Y-69140476D01*
X181310714Y-69092857D01*
X181644047Y-69092857D01*
X181834523Y-69140476D01*
X181929761Y-69235714D01*
X181977380Y-69330952D01*
X181977380Y-69521428D01*
X181977380Y-68140476D02*
X181977380Y-68711904D01*
X181977380Y-68426190D02*
X180977380Y-68426190D01*
X181120238Y-68521428D01*
X181215476Y-68616666D01*
X181263095Y-68711904D01*
M02*
