G04 #@! TF.GenerationSoftware,KiCad,Pcbnew,(5.1.4)-1*
G04 #@! TF.CreationDate,2021-04-25T17:32:38+02:00*
G04 #@! TF.ProjectId,ultimateFC,756c7469-6d61-4746-9546-432e6b696361,rev?*
G04 #@! TF.SameCoordinates,Original*
G04 #@! TF.FileFunction,Profile,NP*
%FSLAX46Y46*%
G04 Gerber Fmt 4.6, Leading zero omitted, Abs format (unit mm)*
G04 Created by KiCad (PCBNEW (5.1.4)-1) date 2021-04-25 17:32:38*
%MOMM*%
%LPD*%
G04 APERTURE LIST*
%ADD10C,0.200000*%
G04 APERTURE END LIST*
D10*
X173800000Y-60032938D02*
G75*
G03X174675268Y-59549437I268J1033502D01*
G01*
X167600000Y-76300001D02*
X167706139Y-76444831D01*
X168000000Y-81000000D02*
X168000000Y-77250001D01*
X167706139Y-76444831D02*
G75*
G02X168000000Y-77250001I-956139J-805169D01*
G01*
X167600000Y-76300001D02*
X167600000Y-72150000D01*
X171531783Y-60529123D02*
G75*
G02X170250000Y-61250000I-1281783J779123D01*
G01*
X167600000Y-67700000D02*
X167706139Y-67555170D01*
X171531783Y-83470877D02*
G75*
G03X170250000Y-82750000I-1281783J-779123D01*
G01*
X172300790Y-60043594D02*
X173799998Y-60032938D01*
X173799998Y-83967062D02*
G75*
G02X174675268Y-84450563I270J-1033502D01*
G01*
X168000000Y-81000000D02*
X170250000Y-82750000D01*
X171531783Y-83470877D02*
X171600000Y-83575000D01*
X167706139Y-67555170D02*
G75*
G03X168000000Y-66750000I-956139J805170D01*
G01*
X172300790Y-83956406D02*
X173799998Y-83967062D01*
X167600000Y-67700000D02*
X167600000Y-72150000D01*
X168000000Y-63000000D02*
X168000000Y-66750000D01*
X171531783Y-60529123D02*
X171600000Y-60425000D01*
X168000000Y-63000000D02*
X170250000Y-61250000D01*
X172300004Y-60043652D02*
G75*
G03X171600000Y-60425000I71252J-963929D01*
G01*
X172300790Y-83956406D02*
G75*
G02X171600000Y-83575000I70466J963987D01*
G01*
X192624881Y-83994654D02*
G75*
G03X193403000Y-83584694I-21881J984960D01*
G01*
X193469646Y-83471754D02*
G75*
G02X194750000Y-82750000I1281610J-776990D01*
G01*
X195072691Y-82785428D02*
X195150000Y-82800000D01*
X195150000Y-82800000D02*
X197300000Y-82800000D01*
X197600000Y-74600000D02*
X197600000Y-82500000D01*
X193403000Y-83584694D02*
X193469647Y-83471754D01*
X197600000Y-82500000D02*
X197300000Y-82800000D01*
X192624881Y-83994654D02*
X191250328Y-83968303D01*
X195072692Y-82785428D02*
G75*
G03X194750000Y-82750000I-323948J-1463316D01*
G01*
X191250328Y-83968303D02*
G75*
G03X190324732Y-84450565I-50596J-1032262D01*
G01*
X192624881Y-60005346D02*
G75*
G02X193403000Y-60415306I-21881J-984960D01*
G01*
X193469646Y-60528246D02*
G75*
G03X194750000Y-61250000I1281610J776990D01*
G01*
X195072691Y-61214572D02*
X195150000Y-61200000D01*
X195150000Y-61200000D02*
X197300000Y-61200000D01*
X197600000Y-69400000D02*
X197600000Y-61500000D01*
X193403000Y-60415306D02*
X193469647Y-60528246D01*
X197600000Y-61500000D02*
X197300000Y-61200000D01*
X192624881Y-60005346D02*
X191250328Y-60031697D01*
X195072692Y-61214572D02*
G75*
G02X194750000Y-61250000I-323948J1463316D01*
G01*
X191250328Y-60031697D02*
G75*
G02X190324732Y-59549435I-50596J1032262D01*
G01*
X182700000Y-83900000D02*
X182300000Y-83900000D01*
X181367432Y-84539006D02*
G75*
G02X182300000Y-83900000I932568J-360994D01*
G01*
X181367432Y-84539006D02*
X181340000Y-84600000D01*
X183632567Y-84539006D02*
X183660000Y-84600000D01*
X185180000Y-84600000D02*
X185530000Y-84600000D01*
X190301232Y-84463223D02*
X190324732Y-84450565D01*
X186479999Y-84600000D02*
X186130000Y-84600000D01*
X189040000Y-84050000D02*
X189520000Y-84050000D01*
X189780000Y-84600000D02*
X189780000Y-84300398D01*
X185180199Y-84300000D02*
G75*
G03X184920000Y-84050000I-250199J1D01*
G01*
X183632568Y-84539006D02*
G75*
G03X182700000Y-83900000I-932568J-360994D01*
G01*
X185830002Y-84439444D02*
G75*
G02X186130000Y-84600000I-2J-360554D01*
G01*
X187480000Y-84600000D02*
X187830000Y-84600000D01*
X184180000Y-84600000D02*
X183660000Y-84600000D01*
X184920000Y-84050000D02*
X184430000Y-84050398D01*
X189780199Y-84300000D02*
G75*
G03X189520000Y-84050000I-250199J1D01*
G01*
X188130001Y-84439444D02*
G75*
G02X188430000Y-84600000I-1J-360555D01*
G01*
X188779999Y-84600000D02*
X188430000Y-84600000D01*
X184430001Y-84050399D02*
G75*
G03X184180000Y-84300398I-1J-250000D01*
G01*
X187480000Y-84600000D02*
X187480000Y-84300398D01*
X185830000Y-84439445D02*
G75*
G03X185530000Y-84600000I0J-360555D01*
G01*
X188130001Y-84439445D02*
G75*
G03X187830000Y-84600000I-1J-360556D01*
G01*
X189780000Y-84600000D02*
X190129999Y-84600000D01*
X186479801Y-84300000D02*
G75*
G02X186740000Y-84050000I250199J1D01*
G01*
X190301232Y-84463222D02*
G75*
G03X190129999Y-84600000I128767J-336777D01*
G01*
X188779801Y-84300000D02*
G75*
G02X189040000Y-84050000I250199J1D01*
G01*
X186479999Y-84600000D02*
X186480000Y-84300399D01*
X186740000Y-84050000D02*
X187219999Y-84050000D01*
X185180000Y-84600000D02*
X185180000Y-84300399D01*
X187480198Y-84300000D02*
G75*
G03X187219999Y-84050000I-250199J1D01*
G01*
X188779999Y-84600000D02*
X188780000Y-84300399D01*
X184180000Y-84600000D02*
X184180000Y-84300398D01*
X176220001Y-84600000D02*
X176570000Y-84600000D01*
X174698768Y-84463222D02*
G75*
G02X174870001Y-84600000I-128767J-336777D01*
G01*
X179169999Y-84439444D02*
G75*
G03X178870000Y-84600000I1J-360555D01*
G01*
X174698768Y-84463222D02*
X174675268Y-84450565D01*
X177520000Y-84600000D02*
X177170000Y-84600000D01*
X176870000Y-84439445D02*
G75*
G02X177170000Y-84600000I0J-360555D01*
G01*
X175219801Y-84300000D02*
G75*
G02X175480000Y-84050000I250199J1D01*
G01*
X176869999Y-84439444D02*
G75*
G03X176570000Y-84600000I1J-360555D01*
G01*
X175220000Y-84600000D02*
X174870001Y-84600000D01*
X178520001Y-84600000D02*
X178870000Y-84600000D01*
X175960000Y-84050000D02*
X175480000Y-84050000D01*
X175220000Y-84600000D02*
X175220000Y-84300398D01*
X176220199Y-84300000D02*
G75*
G03X175960000Y-84050000I-250199J1D01*
G01*
X178520001Y-84600000D02*
X178520000Y-84300398D01*
X177519801Y-84300000D02*
G75*
G02X177780000Y-84050000I250199J1D01*
G01*
X178260000Y-84050000D02*
X177780000Y-84050000D01*
X177520000Y-84600000D02*
X177520000Y-84300398D01*
X178520199Y-84300000D02*
G75*
G03X178260000Y-84050000I-250199J1D01*
G01*
X176220001Y-84600000D02*
X176220000Y-84300399D01*
X179820000Y-84600000D02*
X179820000Y-84300398D01*
X179170000Y-84439445D02*
G75*
G02X179470000Y-84600000I0J-360555D01*
G01*
X179820000Y-84600000D02*
X179470000Y-84600000D01*
X180080000Y-84050000D02*
X180570000Y-84050398D01*
X180570000Y-84050398D02*
G75*
G02X180820000Y-84300398I0J-250000D01*
G01*
X180820000Y-84600000D02*
X180820000Y-84300398D01*
X179819801Y-84300000D02*
G75*
G02X180080000Y-84050000I250199J1D01*
G01*
X180820000Y-84600000D02*
X181340000Y-84600000D01*
X183632568Y-59460994D02*
G75*
G02X182700000Y-60100000I-932568J360994D01*
G01*
X183632567Y-59460994D02*
X183660000Y-59400000D01*
X188779999Y-59400000D02*
X188430000Y-59400000D01*
X190301232Y-59536778D02*
G75*
G02X190129999Y-59400000I128767J336777D01*
G01*
X185830002Y-59560556D02*
G75*
G03X186130000Y-59400000I-2J360554D01*
G01*
X190301232Y-59536777D02*
X190324732Y-59549435D01*
X187480000Y-59400000D02*
X187830000Y-59400000D01*
X188130001Y-59560555D02*
G75*
G02X187830000Y-59400000I-1J360556D01*
G01*
X189780199Y-59700000D02*
G75*
G02X189520000Y-59950000I-250199J-1D01*
G01*
X188130001Y-59560556D02*
G75*
G03X188430000Y-59400000I-1J360555D01*
G01*
X189780000Y-59400000D02*
X190129999Y-59400000D01*
X186479999Y-59400000D02*
X186130000Y-59400000D01*
X189040000Y-59950000D02*
X189520000Y-59950000D01*
X189780000Y-59400000D02*
X189780000Y-59699602D01*
X188779801Y-59700000D02*
G75*
G03X189040000Y-59950000I250199J-1D01*
G01*
X186479999Y-59400000D02*
X186480000Y-59699601D01*
X187480198Y-59700000D02*
G75*
G02X187219999Y-59950000I-250199J-1D01*
G01*
X186740000Y-59950000D02*
X187219999Y-59950000D01*
X187480000Y-59400000D02*
X187480000Y-59699602D01*
X186479801Y-59700000D02*
G75*
G03X186740000Y-59950000I250199J-1D01*
G01*
X188779999Y-59400000D02*
X188780000Y-59699601D01*
X185180000Y-59400000D02*
X185180000Y-59699601D01*
X185830000Y-59560555D02*
G75*
G02X185530000Y-59400000I0J360555D01*
G01*
X185180000Y-59400000D02*
X185530000Y-59400000D01*
X184920000Y-59950000D02*
X184430000Y-59949602D01*
X184430001Y-59949601D02*
G75*
G02X184180000Y-59699602I-1J250000D01*
G01*
X184180000Y-59400000D02*
X184180000Y-59699602D01*
X185180199Y-59700000D02*
G75*
G02X184920000Y-59950000I-250199J-1D01*
G01*
X184180000Y-59400000D02*
X183660000Y-59400000D01*
X182700000Y-60100000D02*
X182300000Y-60100000D01*
X175220000Y-59400000D02*
X174870001Y-59400000D01*
X174698768Y-59536778D02*
G75*
G03X174870001Y-59400000I-128767J336777D01*
G01*
X176869999Y-59560556D02*
G75*
G02X176570000Y-59400000I1J360555D01*
G01*
X176220001Y-59400000D02*
X176570000Y-59400000D01*
X176870000Y-59560555D02*
G75*
G03X177170000Y-59400000I0J360555D01*
G01*
X177520000Y-59400000D02*
X177170000Y-59400000D01*
X179169999Y-59560556D02*
G75*
G02X178870000Y-59400000I1J360555D01*
G01*
X178520001Y-59400000D02*
X178870000Y-59400000D01*
X174698768Y-59536778D02*
X174675268Y-59549435D01*
X175219801Y-59700000D02*
G75*
G03X175480000Y-59950000I250199J-1D01*
G01*
X175960000Y-59950000D02*
X175480000Y-59950000D01*
X175220000Y-59400000D02*
X175220000Y-59699602D01*
X177520000Y-59400000D02*
X177520000Y-59699602D01*
X177519801Y-59700000D02*
G75*
G03X177780000Y-59950000I250199J-1D01*
G01*
X176220001Y-59400000D02*
X176220000Y-59699601D01*
X176220199Y-59700000D02*
G75*
G02X175960000Y-59950000I-250199J-1D01*
G01*
X178520001Y-59400000D02*
X178520000Y-59699602D01*
X178260000Y-59950000D02*
X177780000Y-59950000D01*
X178520199Y-59700000D02*
G75*
G02X178260000Y-59950000I-250199J-1D01*
G01*
X179170000Y-59560555D02*
G75*
G03X179470000Y-59400000I0J360555D01*
G01*
X179820000Y-59400000D02*
X179820000Y-59699602D01*
X179820000Y-59400000D02*
X179470000Y-59400000D01*
X181367432Y-59460994D02*
G75*
G03X182300000Y-60100000I932568J360994D01*
G01*
X181367432Y-59460994D02*
X181340000Y-59400000D01*
X196820000Y-69400000D02*
X197020000Y-69400000D01*
X197020000Y-69400000D02*
X197600000Y-69400000D01*
X196020000Y-70200000D02*
G75*
G02X196820000Y-69400000I800000J0D01*
G01*
X179819801Y-59700000D02*
G75*
G03X180080000Y-59950000I250199J-1D01*
G01*
X180820000Y-59400000D02*
X180820000Y-59699602D01*
X180820000Y-59400000D02*
X181340000Y-59400000D01*
X180570000Y-59949602D02*
G75*
G03X180820000Y-59699602I0J250000D01*
G01*
X180080000Y-59950000D02*
X180570000Y-59949602D01*
X198000000Y-71000000D02*
X198000000Y-73000000D01*
X196820000Y-74600000D02*
X197020000Y-74600000D01*
X198000000Y-73000000D02*
X196820000Y-73000000D01*
X196820000Y-71000000D02*
G75*
G02X196020000Y-70200000I0J800000D01*
G01*
X196820000Y-73000000D02*
G75*
G03X196020000Y-73800000I0J-800000D01*
G01*
X196020000Y-73800000D02*
G75*
G03X196820000Y-74600000I800000J0D01*
G01*
X197020000Y-74600000D02*
X197600000Y-74600000D01*
X198000000Y-71000000D02*
X196820000Y-71000000D01*
M02*
